<?xml version="1.0" encoding="UTF-8" standalone="no"?>
<svg
   xmlns:dc="http://purl.org/dc/elements/1.1/"
   xmlns:cc="http://creativecommons.org/ns#"
   xmlns:rdf="http://www.w3.org/1999/02/22-rdf-syntax-ns#"
   xmlns:svg="http://www.w3.org/2000/svg"
   xmlns="http://www.w3.org/2000/svg"
   viewBox="0 0 666.66669 496.81332"
   height="496.81332"
   width="666.66669"
   xml:space="preserve"
   id="svg2"
   version="1.1"><metadata
     id="metadata8"><rdf:RDF><cc:Work
         rdf:about=""><dc:format>image/svg+xml</dc:format><dc:type
           rdf:resource="http://purl.org/dc/dcmitype/StillImage" /></cc:Work></rdf:RDF></metadata><defs
     id="defs6"><clipPath
       id="clipPath410"
       clipPathUnits="userSpaceOnUse"><path
         id="path408"
         d="m 852.766,1822.49 c 0,0 -27.871,45.12 -49.289,139.31 -23.274,102.35 -40.403,254.83 -44.723,265.07 -7.488,17.76 -80.871,254.31 -96.477,304.7 l 55.766,24.67 106.336,-288.99 64.504,-291.59 c 4.097,-17.72 5.797,-33.81 5.793,-48.31 -0.02,-71.85 -41.91,-104.86 -41.91,-104.86 v 0" /></clipPath></defs><g
     transform="matrix(1.3333333,0,0,-1.3333333,0,496.81333)"
     id="g10"><g
       transform="scale(0.1)"
       id="g12"><path
         id="path14"
         style="fill:#e7e8e5;fill-opacity:1;fill-rule:nonzero;stroke:none"
         d="m 0,449.129 h 5000 v 2.5 H 0 Z" /><path
         id="path16"
         style="fill:#e7e8e5;fill-opacity:1;fill-rule:nonzero;stroke:none"
         d="m 4167.79,290.672 h 331.22 v -2.5 h -331.22 v 2.5" /><path
         id="path18"
         style="fill:#e7e8e5;fill-opacity:1;fill-rule:nonzero;stroke:none"
         d="m 3225.27,261.039 h 86.9297 v 2.5 H 3225.27 Z" /><path
         id="path20"
         style="fill:#e7e8e5;fill-opacity:1;fill-rule:nonzero;stroke:none"
         d="m 3965.86,383.539 h 191.92 v -2.5 h -191.92 v 2.5" /><path
         id="path22"
         style="fill:#e7e8e5;fill-opacity:1;fill-rule:nonzero;stroke:none"
         d="m 524.59,366.73 h 431.933 v -2.5 H 524.59 v 2.5" /><path
         id="path24"
         style="fill:#e7e8e5;fill-opacity:1;fill-rule:nonzero;stroke:none"
         d="m 1045.56,364.23 h 63.332 v 2.5 h -63.332 z" /><path
         id="path26"
         style="fill:#e7e8e5;fill-opacity:1;fill-rule:nonzero;stroke:none"
         d="m 1314.71,322.012 h 936.758 v 2.5 H 1314.71 Z" /><path
         id="path28"
         style="fill:#e7e8e5;fill-opacity:1;fill-rule:nonzero;stroke:none"
         d="m 439.152,3723.59 c -30.101,0 -54.582,-24.48 -54.582,-54.57 V 954.699 c 0,-30.097 24.481,-54.578 54.582,-54.578 H 2370.14 c 30.08,0 54.57,24.481 54.57,54.578 V 3669.02 c 0,30.09 -24.49,54.57 -54.57,54.57 H 439.152 M 2370.14,897.621 H 439.152 c -31.476,0 -57.082,25.598 -57.082,57.078 V 3669.02 c 0,31.46 25.606,57.07 57.082,57.07 H 2370.14 c 31.46,0 57.07,-25.61 57.07,-57.07 V 954.699 c 0,-31.48 -25.61,-57.078 -57.07,-57.078" /><path
         id="path30"
         style="fill:#e7e8e5;fill-opacity:1;fill-rule:nonzero;stroke:none"
         d="m 2602.12,3723.59 c -30.09,0 -54.57,-24.48 -54.57,-54.57 V 954.699 c 0,-30.097 24.48,-54.578 54.57,-54.578 h 1930.99 c 30.09,0 54.58,24.481 54.58,54.578 V 3669.02 c 0,30.09 -24.49,54.57 -54.58,54.57 H 2602.12 M 4533.11,897.621 H 2602.12 c -31.47,0 -57.07,25.598 -57.07,57.078 V 3669.02 c 0,31.46 25.6,57.07 57.07,57.07 h 1930.99 c 31.47,0 57.08,-25.61 57.08,-57.07 V 954.699 c 0,-31.48 -25.61,-57.078 -57.08,-57.078" /><path
         id="path32"
         style="fill:#fafaf9;fill-opacity:1;fill-rule:nonzero;stroke:none"
         d="m 932.383,1201.05 h 712.539 v 2417.1 H 932.383 Z" /><path
         id="path34"
         style="fill:#f3f2f1;fill-opacity:1;fill-rule:nonzero;stroke:none"
         d="m 1538.81,3618.15 h -41.63 l -248.52,-2417.1 h 41.63 l 248.52,2417.1" /><path
         id="path36"
         style="fill:#dadbd8;fill-opacity:1;fill-rule:nonzero;stroke:none"
         d="M 1632.29,3587.5 H 927.828 v 21.3 h 704.462 v -21.3" /><path
         id="path38"
         style="fill:#e7e8e5;fill-opacity:1;fill-rule:nonzero;stroke:none"
         d="m 927.828,1176.6 h 704.461 v 45.5898 H 927.828 Z" /><path
         id="path40"
         style="fill:#e7e8e5;fill-opacity:1;fill-rule:nonzero;stroke:none"
         d="m 954.918,1176.6 h 665.66 v 2.0195 h -665.66 z" /><path
         id="path42"
         style="fill:#e7e8e5;fill-opacity:1;fill-rule:nonzero;stroke:none"
         d="M 954.918,3608.8 H 1620.58 V 1178.62 h 39.88 V 3638.67 H 915.039 V 1178.62 h 39.879 V 3608.8" /><path
         id="path44"
         style="fill:#fafaf9;fill-opacity:1;fill-rule:nonzero;stroke:none"
         d="m 1725.25,1201.05 h 712.539 v 2417.1 H 1725.25 Z" /><path
         id="path46"
         style="fill:#f3f2f1;fill-opacity:1;fill-rule:nonzero;stroke:none"
         d="m 2240.16,3618.15 h -227.18 l -248.52,-2417.1 h 227.17 l 248.53,2417.1" /><path
         id="path48"
         style="fill:#dadbd8;fill-opacity:1;fill-rule:nonzero;stroke:none"
         d="M 2445.17,3587.5 H 1720.7 v 21.3 h 724.47 v -21.3" /><path
         id="path50"
         style="fill:#e7e8e5;fill-opacity:1;fill-rule:nonzero;stroke:none"
         d="m 1720.7,1176.6 h 724.473 v 45.5898 H 1720.7 Z" /><path
         id="path52"
         style="fill:#e7e8e5;fill-opacity:1;fill-rule:nonzero;stroke:none"
         d="m 1747.79,1176.6 h 665.672 v 2.0195 H 1747.79 Z" /><path
         id="path54"
         style="fill:#e7e8e5;fill-opacity:1;fill-rule:nonzero;stroke:none"
         d="m 1747.79,3608.8 h 665.67 V 1178.62 h 39.87 V 3638.67 H 1707.92 V 1178.62 h 39.87 V 3608.8" /><path
         id="path56"
         style="fill:#fafaf9;fill-opacity:1;fill-rule:nonzero;stroke:none"
         d="m 2518.13,1201.05 h 692.543 v 2417.1 H 2518.13 Z" /><path
         id="path58"
         style="fill:#f3f2f1;fill-opacity:1;fill-rule:nonzero;stroke:none"
         d="m 2910.51,3618.15 h -41.63 l -248.53,-2417.1 h 41.64 l 248.52,2417.1" /><path
         id="path60"
         style="fill:#dadbd8;fill-opacity:1;fill-rule:nonzero;stroke:none"
         d="m 3218.04,3587.5 h -704.47 v 21.3 h 704.47 v -21.3" /><path
         id="path62"
         style="fill:#e7e8e5;fill-opacity:1;fill-rule:nonzero;stroke:none"
         d="m 2513.57,1176.6 h 704.469 v 45.5898 H 2513.57 Z" /><path
         id="path64"
         style="fill:#e7e8e5;fill-opacity:1;fill-rule:nonzero;stroke:none"
         d="m 2540.66,1176.6 h 665.672 v 2.0195 H 2540.66 Z" /><path
         id="path66"
         style="fill:#e7e8e5;fill-opacity:1;fill-rule:nonzero;stroke:none"
         d="m 2540.66,3608.8 h 665.67 V 1178.62 h 39.88 V 3638.67 H 2500.79 V 1178.62 h 39.87 V 3608.8" /><path
         id="path68"
         style="fill:#fafaf9;fill-opacity:1;fill-rule:nonzero;stroke:none"
         d="m 3311,1201.05 h 712.539 v 2417.1 H 3311 Z" /><path
         id="path70"
         style="fill:#f3f2f1;fill-opacity:1;fill-rule:nonzero;stroke:none"
         d="m 3953.83,3618.15 h -227.17 l -248.53,-2417.1 h 227.17 l 248.53,2417.1" /><path
         id="path72"
         style="fill:#dadbd8;fill-opacity:1;fill-rule:nonzero;stroke:none"
         d="m 4010.91,3587.5 h -704.46 v 21.3 h 704.46 v -21.3" /><path
         id="path74"
         style="fill:#e7e8e5;fill-opacity:1;fill-rule:nonzero;stroke:none"
         d="m 3306.45,1176.6 h 704.461 v 45.5898 H 3306.45 Z" /><path
         id="path76"
         style="fill:#e7e8e5;fill-opacity:1;fill-rule:nonzero;stroke:none"
         d="M 3333.53,3608.8 H 3999.2 V 1178.62 h 39.88 V 3638.67 H 3293.66 V 1178.62 h 39.87 V 3608.8" /><path
         id="path78"
         style="fill:#e7e8e5;fill-opacity:1;fill-rule:nonzero;stroke:none"
         d="m 3333.53,1176.6 h 665.668 v 2.0195 H 3333.53 Z" /><path
         id="path80"
         style="fill:#e7e8e5;fill-opacity:1;fill-rule:nonzero;stroke:none"
         d="m 1165.12,1222.13 h 309.34 v 534.883 h -309.34 z" /><path
         id="path82"
         style="fill:#e7e8e5;fill-opacity:1;fill-rule:nonzero;stroke:none"
         d="m 1415.05,1831.76 v -134.15 h -190.52 v 134.15 h 190.52" /><path
         id="path84"
         style="fill:#fafaf9;fill-opacity:1;fill-rule:nonzero;stroke:none"
         d="m 1415.05,1697.61 h 39.5977 v 39.6094 H 1415.05 Z" /><path
         id="path86"
         style="fill:#fafaf9;fill-opacity:1;fill-rule:nonzero;stroke:none"
         d="m 1338.34,1697.61 h 39.6 v 39.61 h -39.6 v -39.61" /><path
         id="path88"
         style="fill:#fafaf9;fill-opacity:1;fill-rule:nonzero;stroke:none"
         d="m 1261.64,1697.61 h 39.5898 v 39.6094 H 1261.64 Z" /><path
         id="path90"
         style="fill:#ededeb;fill-opacity:1;fill-rule:nonzero;stroke:none"
         d="m 1184.93,1697.61 h 39.6016 v 39.6094 H 1184.93 Z" /><path
         id="path92"
         style="fill:#ededeb;fill-opacity:1;fill-rule:nonzero;stroke:none"
         d="m 1415.05,1625.65 h 39.5977 v 39.6016 H 1415.05 Z" /><path
         id="path94"
         style="fill:#ededeb;fill-opacity:1;fill-rule:nonzero;stroke:none"
         d="m 1338.34,1625.66 h 39.6 v 39.59 h -39.6 v -39.59" /><path
         id="path96"
         style="fill:#fafaf9;fill-opacity:1;fill-rule:nonzero;stroke:none"
         d="m 1261.64,1625.65 h 39.5898 v 39.6016 H 1261.64 Z" /><path
         id="path98"
         style="fill:#fafaf9;fill-opacity:1;fill-rule:nonzero;stroke:none"
         d="m 1184.93,1625.65 h 39.6016 v 39.6016 H 1184.93 Z" /><path
         id="path100"
         style="fill:#ededeb;fill-opacity:1;fill-rule:nonzero;stroke:none"
         d="m 1415.05,1553.69 h 39.6 v 39.61 h -39.6 v -39.61" /><path
         id="path102"
         style="fill:#fafaf9;fill-opacity:1;fill-rule:nonzero;stroke:none"
         d="m 1338.34,1553.69 h 39.6 v 39.61 h -39.6 v -39.61" /><path
         id="path104"
         style="fill:#fafaf9;fill-opacity:1;fill-rule:nonzero;stroke:none"
         d="m 1261.64,1553.69 h 39.5898 v 39.6094 H 1261.64 Z" /><path
         id="path106"
         style="fill:#fafaf9;fill-opacity:1;fill-rule:nonzero;stroke:none"
         d="m 1338.34,1759.81 h 39.6 v 39.6 h -39.6 v -39.6" /><path
         id="path108"
         style="fill:#ededeb;fill-opacity:1;fill-rule:nonzero;stroke:none"
         d="m 1261.64,1759.81 h 39.5898 v 39.6016 H 1261.64 Z" /><path
         id="path110"
         style="fill:#ededeb;fill-opacity:1;fill-rule:nonzero;stroke:none"
         d="m 1184.93,1553.69 h 39.6016 v 39.6094 H 1184.93 Z" /><path
         id="path112"
         style="fill:#fafaf9;fill-opacity:1;fill-rule:nonzero;stroke:none"
         d="m 1415.05,1481.74 h 39.6 v 39.6 h -39.6 v -39.6" /><path
         id="path114"
         style="fill:#ededeb;fill-opacity:1;fill-rule:nonzero;stroke:none"
         d="m 1338.35,1481.74 h 39.5898 v 39.6016 H 1338.35 Z" /><path
         id="path116"
         style="fill:#ededeb;fill-opacity:1;fill-rule:nonzero;stroke:none"
         d="m 1261.64,1481.74 h 39.5898 v 39.6016 H 1261.64 Z" /><path
         id="path118"
         style="fill:#fafaf9;fill-opacity:1;fill-rule:nonzero;stroke:none"
         d="m 1184.93,1481.74 h 39.6016 v 39.6016 H 1184.93 Z" /><path
         id="path120"
         style="fill:#ededeb;fill-opacity:1;fill-rule:nonzero;stroke:none"
         d="m 1415.05,1409.78 h 39.5977 v 39.6094 H 1415.05 Z" /><path
         id="path122"
         style="fill:#fafaf9;fill-opacity:1;fill-rule:nonzero;stroke:none"
         d="m 1338.35,1409.78 h 39.5898 v 39.6094 H 1338.35 Z" /><path
         id="path124"
         style="fill:#fafaf9;fill-opacity:1;fill-rule:nonzero;stroke:none"
         d="m 1261.64,1409.78 h 39.5898 v 39.6094 H 1261.64 Z" /><path
         id="path126"
         style="fill:#ededeb;fill-opacity:1;fill-rule:nonzero;stroke:none"
         d="m 1184.93,1409.78 h 39.6016 v 39.6094 H 1184.93 Z" /><path
         id="path128"
         style="fill:#ededeb;fill-opacity:1;fill-rule:nonzero;stroke:none"
         d="m 1415.05,1337.82 h 39.5977 v 39.6016 H 1415.05 Z" /><path
         id="path130"
         style="fill:#fafaf9;fill-opacity:1;fill-rule:nonzero;stroke:none"
         d="m 1338.35,1337.82 h 39.5898 v 39.6016 H 1338.35 Z" /><path
         id="path132"
         style="fill:#ededeb;fill-opacity:1;fill-rule:nonzero;stroke:none"
         d="m 1261.64,1337.82 h 39.5898 v 39.6016 H 1261.64 Z" /><path
         id="path134"
         style="fill:#fafaf9;fill-opacity:1;fill-rule:nonzero;stroke:none"
         d="m 1184.93,1337.82 h 39.6016 v 39.6016 H 1184.93 Z" /><path
         id="path136"
         style="fill:#fafaf9;fill-opacity:1;fill-rule:nonzero;stroke:none"
         d="m 1415.05,1265.87 h 39.5977 v 39.5977 H 1415.05 Z" /><path
         id="path138"
         style="fill:#fafaf9;fill-opacity:1;fill-rule:nonzero;stroke:none"
         d="m 1338.35,1265.87 h 39.5898 v 39.5977 H 1338.35 Z" /><path
         id="path140"
         style="fill:#ededeb;fill-opacity:1;fill-rule:nonzero;stroke:none"
         d="m 1261.64,1265.87 h 39.5898 v 39.5977 H 1261.64 Z" /><path
         id="path142"
         style="fill:#ededeb;fill-opacity:1;fill-rule:nonzero;stroke:none"
         d="m 1184.93,1265.87 h 39.6016 v 39.5977 H 1184.93 Z" /><path
         id="path144"
         style="fill:#ededeb;fill-opacity:1;fill-rule:nonzero;stroke:none"
         d="m 3376.25,1222.13 h 277.102 v 340.043 H 3376.25 Z" /><path
         id="path146"
         style="fill:#e2e2e0;fill-opacity:1;fill-rule:nonzero;stroke:none"
         d="m 3400.37,1524.45 h 99.94 v -35.47 h -99.94 v 35.47" /><path
         id="path148"
         style="fill:#fafaf9;fill-opacity:1;fill-rule:nonzero;stroke:none"
         d="m 3400.37,1455.74 h 99.94 v -35.47 h -99.94 v 35.47" /><path
         id="path150"
         style="fill:#e2e2e0;fill-opacity:1;fill-rule:nonzero;stroke:none"
         d="m 3400.37,1387.02 h 99.94 v -35.48 h -99.94 v 35.48" /><path
         id="path152"
         style="fill:#fafaf9;fill-opacity:1;fill-rule:nonzero;stroke:none"
         d="m 3400.37,1318.31 h 99.94 v -35.48 h -99.94 v 35.48" /><path
         id="path154"
         style="fill:#fafaf9;fill-opacity:1;fill-rule:nonzero;stroke:none"
         d="m 3529.29,1524.45 h 99.93 v -35.47 h -99.93 v 35.47" /><path
         id="path156"
         style="fill:#fafaf9;fill-opacity:1;fill-rule:nonzero;stroke:none"
         d="m 3529.29,1455.74 h 99.93 v -35.47 h -99.93 v 35.47" /><path
         id="path158"
         style="fill:#e2e2e0;fill-opacity:1;fill-rule:nonzero;stroke:none"
         d="m 3529.29,1387.02 h 99.93 v -35.48 h -99.93 v 35.48" /><path
         id="path160"
         style="fill:#fafaf9;fill-opacity:1;fill-rule:nonzero;stroke:none"
         d="m 3529.29,1318.31 h 99.93 v -35.48 h -99.93 v 35.48" /><path
         id="path162"
         style="fill:#ededeb;fill-opacity:1;fill-rule:nonzero;stroke:none"
         d="m 2066.32,1222.13 h 251.781 v 211.281 H 2066.32 Z" /><path
         id="path164"
         style="fill:#fafaf9;fill-opacity:1;fill-rule:nonzero;stroke:none"
         d="m 2269.75,1374.84 h 32.23 v 32.24 h -32.23 v -32.24" /><path
         id="path166"
         style="fill:#fafaf9;fill-opacity:1;fill-rule:nonzero;stroke:none"
         d="m 2207.31,1374.84 h 32.24 v 32.24 h -32.24 v -32.24" /><path
         id="path168"
         style="fill:#fafaf9;fill-opacity:1;fill-rule:nonzero;stroke:none"
         d="m 2144.88,1374.84 h 32.2305 v 32.2422 H 2144.88 Z" /><path
         id="path170"
         style="fill:#fafaf9;fill-opacity:1;fill-rule:nonzero;stroke:none"
         d="m 2082.44,1374.84 h 32.2305 v 32.2422 H 2082.44 Z" /><path
         id="path172"
         style="fill:#fafaf9;fill-opacity:1;fill-rule:nonzero;stroke:none"
         d="m 2269.75,1316.28 h 32.23 v 32.23 h -32.23 v -32.23" /><path
         id="path174"
         style="fill:#fafaf9;fill-opacity:1;fill-rule:nonzero;stroke:none"
         d="m 2207.31,1316.28 h 32.24 v 32.23 h -32.24 v -32.23" /><path
         id="path176"
         style="fill:#fafaf9;fill-opacity:1;fill-rule:nonzero;stroke:none"
         d="m 2144.88,1316.28 h 32.23 v 32.23 h -32.23 v -32.23" /><path
         id="path178"
         style="fill:#e2e2e0;fill-opacity:1;fill-rule:nonzero;stroke:none"
         d="m 2082.44,1316.28 h 32.2305 v 32.2305 H 2082.44 Z" /><path
         id="path180"
         style="fill:#e2e2e0;fill-opacity:1;fill-rule:nonzero;stroke:none"
         d="m 2269.75,1257.71 h 32.23 v 32.23 h -32.23 v -32.23" /><path
         id="path182"
         style="fill:#e2e2e0;fill-opacity:1;fill-rule:nonzero;stroke:none"
         d="m 2207.31,1257.71 h 32.24 v 32.23 h -32.24 v -32.23" /><path
         id="path184"
         style="fill:#fafaf9;fill-opacity:1;fill-rule:nonzero;stroke:none"
         d="m 2144.88,1257.71 h 32.23 v 32.23 h -32.23 v -32.23" /><path
         id="path186"
         style="fill:#e2e2e0;fill-opacity:1;fill-rule:nonzero;stroke:none"
         d="m 2082.44,1257.71 h 32.2305 v 32.2305 H 2082.44 Z" /><path
         id="path188"
         style="fill:#ededeb;fill-opacity:1;fill-rule:nonzero;stroke:none"
         d="m 1780.43,1222.13 h 251.77 v 367.52 h -251.77 z" /><path
         id="path190"
         style="fill:#fafaf9;fill-opacity:1;fill-rule:nonzero;stroke:none"
         d="m 1921.42,1573.54 h 94.66 v -90.8 h -94.66 v 90.8" /><path
         id="path192"
         style="fill:#fafaf9;fill-opacity:1;fill-rule:nonzero;stroke:none"
         d="m 1796.55,1482.73 h 94.668 v 90.8086 h -94.668 z" /><path
         id="path194"
         style="fill:#fafaf9;fill-opacity:1;fill-rule:nonzero;stroke:none"
         d="m 1921.42,1456.4 h 94.66 v -90.8 h -94.66 v 90.8" /><path
         id="path196"
         style="fill:#fafaf9;fill-opacity:1;fill-rule:nonzero;stroke:none"
         d="m 1796.55,1365.6 h 94.668 v 90.7969 h -94.668 z" /><path
         id="path198"
         style="fill:#fafaf9;fill-opacity:1;fill-rule:nonzero;stroke:none"
         d="m 1921.42,1248.47 h 94.6602 v 90.8008 H 1921.42 Z" /><path
         id="path200"
         style="fill:#fafaf9;fill-opacity:1;fill-rule:nonzero;stroke:none"
         d="m 1796.55,1248.47 h 94.668 v 90.8008 h -94.668 z" /><path
         id="path202"
         style="fill:#f3f2f1;fill-opacity:1;fill-rule:nonzero;stroke:none"
         d="M 4438.89,113.23 C 4438.89,50.6914 3570.83,0 2500,0 1429.18,0 561.113,50.6914 561.113,113.23 c 0,62.54 868.067,113.239 1938.887,113.239 1070.83,0 1938.89,-50.699 1938.89,-113.239" /><path
         id="path204"
         style="fill:#406fbf;fill-opacity:1;fill-rule:nonzero;stroke:none"
         d="m 4445.7,3479.52 v -2202.4 l -265,-265 H 2646.6 v 2467.4 h 1799.1" /><path
         id="path206"
         style="fill:#cfe0f5;fill-opacity:1;fill-rule:nonzero;stroke:none"
         d="m 4180.7,1012.12 h -185.15 c 1.42,5.64 3.04,11.31 4.89,16.99 19.64,60.26 34.96,142.83 34.94,204.19 -0.01,42.84 -7.5,75.35 -26.22,82.7 -1.72,0.67 -3.33,1 -4.82,1 -38.04,0 -5.37,-211.84 -43.38,-285.9 0,0 -33.18,85.69 -38.64,167.89 -5.46,82.18 3.07,213.43 -32.88,247.11 -8.74,8.18 -16.72,12.99 -23.28,12.99 -10.97,0 -17.98,-13.47 -17.98,-47.22 0.01,-29.09 5.22,-73.23 17.61,-136.79 20.92,-107.41 29.36,-202.92 32.76,-262.96 h -21.37 c -27.19,70.97 -72.46,174.46 -106.74,178.99 -2.21,0.3 -4.34,0.44 -6.37,0.44 -22.87,0 -33.88,-18.2 -33.87,-44.38 0.01,-26.38 11.22,-60.87 32.77,-93 8.33,-12.42 18.11,-26.68 28.59,-42.05 h -563.87 l -33.31,566.91 h 0.18 l -2.15,34.1 h 40.51 c 11.94,0 21.62,9.67 21.62,21.62 v 16.76 28.36 h 37.97 c 11.94,0 21.62,9.68 21.62,21.63 v 0 0 c 0,11.94 -9.68,21.62 -21.62,21.62 h -623.88 l 59.83,0.04 v -0.04 h 229.63 109.11 18.19 109.12 v 53.67 h 232.9 c 14.54,0 26.33,11.78 26.33,26.33 0,14.53 -11.79,26.32 -26.33,26.32 h -232.9 v 64.52 h 1032.9 c 14.54,0 26.33,11.78 26.33,26.32 0,14.55 -11.79,26.33 -26.33,26.33 h -1032.9 v 27.33 c 19.7,10.97 39.4,21.95 59.1,32.92 2.56,1.42 5.12,2.85 7.67,4.27 h 966.13 c 14.54,0 26.33,11.79 26.33,26.33 0,14.54 -11.79,26.33 -26.33,26.33 H 3355.8 c 29.18,16.25 58.36,32.51 87.54,48.76 9.43,5.26 18.86,10.51 28.29,15.76 h 755.78 c 14.54,0 26.33,11.78 26.33,26.32 0,14.55 -11.79,26.33 -26.33,26.33 h -661.27 c 28.53,15.89 57.05,31.78 85.57,47.67 10.09,5.62 20.17,11.24 30.26,16.85 h 545.44 c 14.54,0 26.33,11.79 26.33,26.33 0,14.54 -11.79,26.33 -26.33,26.33 h -450.93 c 4.49,2.5 8.99,5 13.48,7.51 5.08,2.83 10.89,6.23 15.75,8.65 2.11,7.65 5.98,19.48 12.79,24.22 9.93,6.92 25.76,-0.68 34.15,9.13 1.59,1.86 2.56,4.18 3.98,6.17 2.43,3.41 6.07,5.72 9.61,7.94 0.47,0.3 0.95,0.6 1.44,0.9 h 11.79 c 0.7,-0.89 1.09,-1.97 0.94,-3.12 3.45,0.81 6.85,1.86 10.21,3.12 h 336.79 c 14.54,0 26.33,11.78 26.33,26.33 0,14.53 -11.79,26.32 -26.33,26.32 h -237.17 c 7.07,3.98 11.91,7.16 11.84,8.41 -0.82,13.33 7.35,24.71 6.94,38.42 -0.05,1.94 -2.88,12.1 -3.34,17.69 h 15.95 c -0.09,-0.15 -0.18,-0.31 -0.27,-0.46 l -0.55,-1.83 c 0.26,-1.41 2.21,-1.49 3.5,-2.12 2.95,-1.42 2.28,-5.82 0.8,-8.74 -1.48,-2.93 -3.28,-6.56 -1.33,-9.19 0.69,-0.95 1.77,-1.54 2.54,-2.42 3.54,-4.02 -0.44,-14.59 4.23,-14.59 0.92,0 2.19,0.41 3.91,1.37 -0.8,2.87 -0.11,6.55 1.37,9.06 1.65,2.79 4.54,4.85 7.65,5.67 7.72,2.05 15.69,2.94 23.68,3.48 l 35.48,19.77 h 124.77 c 14.54,0 26.33,11.79 26.33,26.33 0,14.54 -11.79,26.33 -26.33,26.33 h -30.25 l 78.32,43.62 c 20.43,11.38 27.79,37.26 16.41,57.68 l -1.2,2.15 c -15.6,28.01 -31.2,56.02 -46.81,84.03 6.01,4.82 9.86,12.23 9.86,20.53 0,14.54 -11.79,26.33 -26.33,26.33 h -9.63 c -7.1,12.74 -14.2,25.48 -21.3,38.22 -4.88,8.77 -9.76,17.54 -14.65,26.3 h 45.58 c 14.54,0 26.33,11.79 26.33,26.33 0,14.54 -11.79,26.32 -26.33,26.32 h -74.91 c -3.48,6.26 -6.97,12.52 -10.45,18.77 -5.23,9.39 -10.16,19.04 -15.72,28.23 -2.26,3.73 -3.89,6.14 -6.86,8.79 l -1.91,1.59 c -4.37,3.41 -7.28,3.09 -9.55,7.15 h 119.4 c 14.54,0 26.33,11.78 26.33,26.33 0,14.53 -11.79,26.32 -26.33,26.32 h -140.18 c -7.89,14.17 -15.78,28.33 -23.68,42.5 -1.77,3.18 -3.89,6.05 -6.3,8.58 h 170.16 c 14.54,0 26.33,11.78 26.33,26.33 0,14.53 -11.79,26.32 -26.33,26.32 H 3031.18 c -14.53,0 -26.32,-11.79 -26.32,-26.32 0,-14.55 11.79,-26.33 26.32,-26.33 h 960.63 l -91.68,-51.08 H 2831.18 c -14.53,0 -26.32,-11.79 -26.32,-26.32 0,-14.55 11.79,-26.33 26.32,-26.33 h 974.44 l -26.23,-14.61 c -0.92,-7.6 -7.21,-12.79 -8.45,-20.42 -0.69,-4.27 0.36,-9.08 3.71,-11.8 -0.17,-0.02 -0.34,-0.02 -0.51,-0.02 -2.53,0 -4.29,1.34 -6.44,2.53 -9.08,5.05 -13.69,9.42 -19.98,9.42 -3.05,0 -6.5,-1.03 -11.05,-3.51 -5.97,-3.25 -11.87,-6.61 -17.8,-9.91 -9.69,-5.4 -19.39,-10.8 -29.09,-16.21 h -858.6 c -14.53,0 -26.32,-11.78 -26.32,-26.32 0,-14.54 11.79,-26.33 26.32,-26.33 h 764.09 c -38.61,-21.51 -77.22,-43.01 -115.83,-64.52 h -648.26 c -14.53,0 -26.32,-11.79 -26.32,-26.33 0,-14.53 11.79,-26.32 26.32,-26.32 h 553.75 c -38.61,-21.51 -77.22,-43.01 -115.82,-64.52 h -437.93 c -14.53,0 -26.32,-11.79 -26.32,-26.33 0,-14.54 11.79,-26.32 26.32,-26.32 h 343.41 c -35.82,-19.96 -71.64,-39.92 -107.47,-59.87 -2.81,-1.57 -5.7,-3.12 -8.64,-4.65 h -227.3 c -14.53,0 -26.32,-11.79 -26.32,-26.33 0,-14.54 11.79,-26.33 26.32,-26.33 h 159.41 c -3.24,-2.85 -6.48,-5.7 -9.72,-8.55 -0.06,-1.49 1.32,-2.07 2.92,-2.07 1.02,0 2.13,0.23 3,0.61 4.13,1.78 8.27,3.56 12.4,5.34 -8.56,-10.93 -18.97,-20.42 -30.64,-27.94 -19.12,-12.31 -41.16,-19.14 -62.89,-25.82 3.54,4.45 7.08,8.89 10.62,13.34 0.86,1.09 1.77,2.51 1.17,3.76 -0.55,1.14 -2.02,1.41 -3.27,1.53 -5.24,0.55 -10.53,0.05 -14.5,3.92 -16.52,-9.89 -33.4,-19.33 -50.36,-28.64 h -18.14 c -13.84,0 -25.19,-10.69 -26.24,-24.26 -3.34,-1.84 -6.68,-3.68 -10,-5.54 -20.43,-11.38 -27.79,-37.25 -16.42,-57.68 l 27.29,-48.98 c -0.62,-2.24 -0.95,-4.6 -0.95,-7.04 0,-11.98 8,-22.09 18.96,-25.28 l 36.52,-65.57 h -29.16 c -6.77,0 -12.95,-2.56 -17.61,-6.76 h -67.9 v -130.25 l -17.21,-8.24 v -109.92 h -81.86 v 1553.73 h 1799.1 v -2202.4 l -7.76,-7.76 H 4180.7 V 1012.12 M 2831.18,3318.49 c -14.53,0 -26.32,-11.79 -26.32,-26.33 0,-14.53 11.79,-26.32 26.32,-26.32 h 496.23 c 14.54,0 26.32,11.79 26.32,26.32 0,14.54 -11.78,26.33 -26.32,26.33 H 2831.18 M 3154.75,1012.12 H 2646.6 v 42.32 l 37.45,520.94 2.77,37.75 h 424.67 l 2.76,-37.75 40.5,-563.26 m -486.12,711 h -22.03 v 0.06 l 22.03,0.01 v -0.07 m 584.42,340.67 h -58.54 v 64.52 h 174.38 c -19.9,-11.08 -39.81,-22.17 -59.71,-33.26 -18.71,-10.42 -37.42,-20.84 -56.13,-31.26 m 210.35,117.17 h -246.91 l 30.69,17.1 c 5.33,2.97 17.92,8.23 21.03,13.58 2.24,3.85 -1.76,13.54 3.73,16.11 1.38,0.63 3.09,0.92 4.84,0.92 2.94,0 6,-0.81 7.79,-2.15 5.97,5.89 11.12,12.25 15.47,18.96 h 279.18 c -16.05,-8.94 -32.1,-17.88 -48.15,-26.82 -22.55,-12.56 -45.11,-25.13 -67.67,-37.7 m -327.38,0 h -223.57 c 0.31,2.07 0.85,4.16 1.67,6.37 -11.44,19.1 -22.49,38.55 -33.35,58.15 h 227.61 c -0.04,-3.47 -0.69,-6.89 -2.72,-10.24 2.73,-4.45 17.63,-31.31 30.36,-54.28 m 44.51,30.46 c -3.48,6.25 -6.9,12.57 -10.51,18.74 2.39,-4.08 0.02,-5.31 -3.12,-5.31 -2.77,0 -6.15,0.96 -7.35,1.76 -5.18,3.46 -7.26,12.1 -7.95,18.87 h 86.91 c -4.5,-3.67 -9.55,-7.08 -15.11,-10.18 l -42.87,-23.88 m 493.21,86.72 h -356.43 c 1.31,21.48 -3.61,43.52 -14.8,63.59 -0.17,0.31 -0.34,0.62 -0.52,0.93 h 487.58 c -4.75,-2.65 -9.49,-5.29 -14.23,-7.93 -18.65,-10.38 -37.29,-20.77 -55.94,-31.16 -15.22,-8.48 -30.44,-16.96 -45.66,-25.43 m -408.36,0 h -133.15 c -7.24,12.99 -14.49,25.99 -21.73,38.99 l 42.87,23.88 c 1.03,0.57 2.05,1.12 3.07,1.65 h 73.99 c 9.57,-6.3 17.93,-15.45 24.58,-27.39 7.01,-12.57 10.38,-25.13 10.37,-37.13 m -194.64,0 h -218.79 c -8.02,14.73 -16.05,29.44 -24.19,44.05 l -1.86,3.34 c 10.25,5.71 20.5,11.42 30.75,17.13 h 209.07 l -23.6,-13.15 28.62,-51.37 m 745.07,53.87 c -0.29,0 -0.5,0.16 -0.59,0.51 -1.18,4.33 -2.49,7.68 -3.99,10.14 h 15.17 c -2.47,-3.23 -8.59,-10.65 -10.59,-10.65 m 68.69,63.3 h -645.09 c -11.51,4.16 -23.65,6.43 -35.9,6.43 -11.6,0 -23.31,-2.04 -34.71,-6.43 h -217.38 c 8.46,4.23 18.46,8.34 25.23,14.19 6.5,5.63 13.01,12.64 20.39,18.66 4.48,3.65 9.74,6.22 14.94,8.76 6.3,3.07 12.59,6.15 18.89,9.22 1.01,0.49 2.06,0.99 3.19,0.99 h 0.01 c 1.16,0 2.24,-0.54 3.37,-0.78 0.54,-0.11 1.13,-0.17 1.75,-0.17 7.23,0 19.48,7.31 29.43,13.65 h 931.51 c -37.96,-22.37 -76.89,-43.36 -115.63,-64.52 m 171.58,62.29 c -0.71,0 -1.45,0.08 -2.2,0.26 -1.32,0.32 -2.54,1.02 -3.55,1.97 h 15.54 c -0.28,-0.08 -0.57,-0.15 -0.87,-0.21 -1.19,-0.25 -2.45,-0.26 -3.69,-0.31 -1.51,-1.08 -3.28,-1.71 -5.23,-1.71 m 38.34,54.89 h -932.91 c 38.61,21.5 77.22,43.01 115.83,64.52 h 932.91 l -115.83,-64.52 m 131.4,117.17 h -853.97 c 38.61,21.51 77.22,43.01 115.82,64.52 h 702.2 c 2.42,-4.34 4.84,-8.68 7.26,-13.03 9.56,-17.15 19.11,-34.3 28.69,-51.49 m -65.52,117.17 h -578.11 c 38.61,21.51 77.21,43.02 115.82,64.52 h 427.07 c 6.01,-8.62 14.7,-17.71 23.35,-20.55 3.93,-1.29 8.43,-4.05 8,-8.16 -0.45,-4.39 -6.5,-7.53 -5.12,-11.7 1.58,-4.78 9.05,-2.67 10.93,-6.46 2.35,-4.75 -3.11,-9.77 -2.51,-15.21 0.09,-0.78 0.29,-1.59 0.57,-2.44 M 4095.27,2884 h -302.75 c 38.62,21.52 77.23,43.02 115.84,64.53 h 150.96 c 11.92,-21.4 24.96,-44.79 35.95,-64.53 m -65.28,117.18 h -27.12 c 5.52,3.07 11.03,6.15 16.55,9.22 1.39,0.77 2.77,1.54 4.15,2.31 0,0 2.39,-4.29 6.42,-11.53" /><path
         id="path208"
         style="fill:#c3c5c2;fill-opacity:1;fill-rule:nonzero;stroke:none"
         d="m 4185.87,1009.52 -5.17,2.6 257.24,257.24 h 7.76 l -259.83,-259.84" /><path
         id="path210"
         style="fill:#a0afc8;fill-opacity:1;fill-rule:nonzero;stroke:none"
         d="m 4180.7,1012.12 v 257.24 h 257.24 L 4180.7,1012.12" /><path
         id="path212"
         style="fill:#b6c8e3;fill-opacity:1;fill-rule:nonzero;stroke:none"
         d="m 3327.41,3265.84 h -496.23 c -14.53,0 -26.32,11.79 -26.32,26.32 0,14.54 11.79,26.33 26.32,26.33 h 496.23 c 14.54,0 26.32,-11.79 26.32,-26.33 0,-14.53 -11.78,-26.32 -26.32,-26.32" /><path
         id="path214"
         style="fill:#b6c8e3;fill-opacity:1;fill-rule:nonzero;stroke:none"
         d="m 4227.41,3052.26 h -170.16 c -8.09,8.51 -19.33,13.18 -30.81,13.18 -6.98,0 -14.05,-1.72 -20.57,-5.35 l -14.06,-7.83 h -960.63 c -14.53,0 -26.32,11.78 -26.32,26.33 0,14.53 11.79,26.32 26.32,26.32 h 1196.23 c 14.54,0 26.33,-11.79 26.33,-26.32 0,-14.55 -11.79,-26.33 -26.33,-26.33" /><path
         id="path216"
         style="fill:#b6c8e3;fill-opacity:1;fill-rule:nonzero;stroke:none"
         d="m 4227.41,2948.53 h -119.4 c -0.51,0.9 -0.98,2.02 -1.43,3.45 -1.83,5.77 0.25,12.14 -2.05,18.09 -3.9,10.09 -11.05,19.88 -16.32,29.34 -0.33,0.59 -0.65,1.18 -0.98,1.77 h 140.18 c 14.54,0 26.33,-11.79 26.33,-26.32 0,-14.55 -11.79,-26.33 -26.33,-26.33 m -168.09,0 h -150.96 c 6.89,3.84 13.78,7.67 20.66,11.51 24.62,13.71 49.23,27.43 73.85,41.14 h 27.12 c 6.53,-11.72 17.37,-31.18 29.33,-52.65 m -253.7,0 h -974.44 c -14.53,0 -26.32,11.78 -26.32,26.33 0,14.53 11.79,26.32 26.32,26.32 h 1068.95 l -94.51,-52.65" /><path
         id="path218"
         style="fill:#b6c8e3;fill-opacity:1;fill-rule:nonzero;stroke:none"
         d="m 4227.41,2831.35 h -45.58 c -9.77,17.55 -19.55,35.1 -29.33,52.65 h 74.91 c 14.54,0 26.33,-11.78 26.33,-26.32 0,-14.54 -11.79,-26.33 -26.33,-26.33 m -102.33,0 h -427.07 c 18.27,10.18 36.53,20.35 54.79,30.53 13.24,7.37 26.48,14.75 39.72,22.12 h 302.75 c 14.43,-25.91 25.35,-45.5 25.61,-45.98 1.18,-2.1 2.59,-4.37 4.2,-6.67 m -529.81,0 h -764.09 c -14.53,0 -26.32,11.79 -26.32,26.33 0,14.54 11.79,26.32 26.32,26.32 h 858.6 c -10.34,-5.76 -20.69,-11.52 -31.04,-17.29 -21.15,-11.78 -42.31,-23.57 -63.47,-35.36" /><path
         id="path220"
         style="fill:#b6c8e3;fill-opacity:1;fill-rule:nonzero;stroke:none"
         d="m 4189.87,2714.18 h -702.2 c 15.37,8.56 30.74,17.12 46.11,25.68 16.13,8.99 32.27,17.98 48.41,26.97 h 578.11 c 1.67,-4.95 6.29,-10.85 8.49,-14.81 7.03,-12.61 14.06,-25.23 21.08,-37.84 m -804.94,0 h -553.75 c -14.53,0 -26.32,11.79 -26.32,26.32 0,14.54 11.79,26.33 26.32,26.33 h 648.26 c -2.9,-1.61 -5.79,-3.22 -8.69,-4.84 -28.61,-15.94 -57.22,-31.87 -85.82,-47.81 m 858.95,5.79 c -8.7,15.62 -17.4,31.24 -26.1,46.86 h 9.63 c 14.54,0 26.33,-11.79 26.33,-26.33 0,-8.3 -3.85,-15.71 -9.86,-20.53" /><path
         id="path222"
         style="fill:#b6c8e3;fill-opacity:1;fill-rule:nonzero;stroke:none"
         d="m 4210.25,2597.01 h -932.91 c 12.54,6.98 25.08,13.97 37.62,20.95 18.97,10.57 37.93,21.13 56.89,31.7 h 853.97 c 6.22,-11.17 12.45,-22.35 18.69,-33.57 l -34.26,-19.08 m -1035.66,0 h -343.41 c -14.53,0 -26.32,11.78 -26.32,26.32 0,14.54 11.79,26.33 26.32,26.33 h 437.93 c -6.25,-3.48 -12.5,-6.96 -18.75,-10.45 -25.26,-14.06 -50.51,-28.13 -75.77,-42.2" /><path
         id="path224"
         style="fill:#b6c8e3;fill-opacity:1;fill-rule:nonzero;stroke:none"
         d="m 4227.41,2479.83 h -124.77 l 94.52,52.66 h 30.25 c 14.54,0 26.33,-11.79 26.33,-26.33 0,-14.54 -11.79,-26.33 -26.33,-26.33 m -161.54,0 h -15.54 c -2.42,2.27 -3.71,5.95 -2.6,9.06 0.4,1.13 0.97,2.03 1.57,2.89 -1.53,2.88 -1.44,6.47 0.62,9.34 -1.08,0.13 -2.14,0.17 -3.24,0.4 -1.74,0.38 -3.43,0.97 -5.13,1.51 -10.7,-5.96 -13.8,-12.67 -19.92,-23.2 h -15.95 c -0.16,1.89 -0.05,3.26 0.53,3.6 -2.03,-1.2 -4.05,-2.4 -6.08,-3.6 h -931.51 c 5.16,3.28 9.69,6.31 12.59,7.92 19.38,10.8 38.77,21.6 58.15,32.4 7.38,4.11 14.77,8.22 22.15,12.34 h 932.91 l -22.96,-12.79 c 0.85,-0.68 1.59,-1.5 2.11,-2.51 l 0.88,-2.27 c 3.65,-0.98 7.17,-2.88 10.47,-4.36 2.83,-1.27 4.45,-4.96 4.39,-7.87 -0.07,-3.15 -1.84,-6.09 -4.58,-7.62 l -10.63,-5.92 c -0.81,-4.41 -3.84,-8.06 -8.23,-9.32 m -1075.28,0 h -159.41 c -14.53,0 -26.32,11.79 -26.32,26.33 0,14.54 11.79,26.33 26.32,26.33 h 227.3 c -23.09,-12.08 -49.23,-23.44 -68.96,-39.12 6.22,-3.27 7.23,-8.12 1.75,-12.94 -0.22,-0.2 -0.45,-0.4 -0.68,-0.6" /><path
         id="path226"
         style="fill:#b6c8e3;fill-opacity:1;fill-rule:nonzero;stroke:none"
         d="m 4227.41,2362.66 h -336.79 c 16.64,6.22 32.06,17.24 47.21,25.85 4.64,2.63 35.16,17.09 52.41,26.8 h 237.17 c 14.54,0 26.33,-11.79 26.33,-26.32 0,-14.55 -11.79,-26.33 -26.33,-26.33 m -347.94,0 h -11.79 c 2.13,1.27 4.39,2.37 6.83,2.37 0.02,0 0.03,0 0.05,0 1.86,-0.01 3.79,-0.95 4.91,-2.37 m -53.07,0 h -15.17 c -2.22,3.6 -4.87,5.27 -8.21,5.27 -2.83,0 -6.15,-1.2 -10.12,-3.41 -1.11,-0.62 -2.22,-1.24 -3.33,-1.86 h -487.58 c -13.81,24.24 -36.6,43.26 -62.58,52.65 h 645.09 c -12.46,-6.81 -24.91,-13.64 -37.29,-20.54 -1.81,-1.01 -8.61,-3.37 -9.57,-5.33 l -0.74,-1.44 c -0.51,-1.08 -1.01,-2.17 -1.5,-3.27 l -0.37,-0.84 c -2.53,-6.31 -4.42,-13.84 -7.6,-19.8 -0.08,-0.15 -0.46,-0.68 -1.03,-1.43 m -595.97,0 h -73.99 c 13.36,6.91 26.61,10.32 39.12,10.32 12.6,0 24.45,-3.47 34.87,-10.32 m -164.71,0 h -209.07 c 13.1,7.3 26.2,14.59 39.3,21.89 17.05,9.5 34.09,19 51.14,28.49 1.38,0.77 2.83,1.52 4.33,2.27 h 217.38 c -0.84,-0.33 -1.68,-0.67 -2.52,-1.02 -2.22,-0.92 -1.25,-7.35 -2.18,-12.6 -2.17,-1.92 -3.97,-4.22 -5.24,-6.82 1.51,0.32 2.61,1.07 3.41,2.11 l -5.64,-9.67 c -6.94,8.36 -4.81,8.59 -6.16,17.63 l -0.14,0.63 -0.78,0.8 -1.25,1.45 c -4.69,-2.1 -9.38,-4.39 -14.07,-7 l -68.51,-38.16 m -260.78,28.39 c 1.05,13.57 12.4,24.26 26.24,24.26 h 18.14 c -14.79,-8.12 -29.64,-16.13 -44.38,-24.26 m 357.33,5.93 0.95,1.64 c -0.26,-0.6 -0.57,-1.15 -0.95,-1.64 m 0.95,1.64 c 0.41,0.93 0.69,1.97 0.88,3.07 0.55,0.49 1.13,0.95 1.72,1.38 l -2.6,-4.45" /><path
         id="path228"
         style="fill:#b6c8e3;fill-opacity:1;fill-rule:nonzero;stroke:none"
         d="m 4227.41,2245.48 h -545.44 c 31.5,17.55 63.01,35.1 94.51,52.66 h 450.93 c 14.54,0 26.33,-11.79 26.33,-26.33 0,-14.54 -11.79,-26.33 -26.33,-26.33 m -648.19,0 h -279.18 c 10.38,16.06 16.14,34.15 17.27,52.66 h 356.43 c -31.51,-17.55 -63.01,-35.1 -94.52,-52.66 m -340.71,0 h -86.91 c -0.16,1.54 -0.25,2.99 -0.28,4.25 -0.38,13.65 -3.57,20.54 -10.38,32.76 -2.9,5.22 -5.81,10.43 -8.71,15.65 h 133.15 c 0,-19.94 -9.34,-38.33 -26.87,-52.66 m -130.13,0 h -227.61 c -9.7,17.49 -19.25,35.09 -28.82,52.66 h 218.79 l 8.44,-15.16 v 0 c -3.29,5.9 2.98,6.94 8.14,6.94 1.4,0 2.72,-0.08 3.74,-0.15 1.03,-0.08 1.76,-0.16 1.97,-0.16 0.02,0 0.04,0 0.05,0.01 1.79,0.24 3.54,1 5.33,1 0.24,0 0.48,-0.01 0.73,-0.04 1.98,-0.26 3.66,-1.63 4.89,-3.22 4.71,-6.06 3.98,-14.58 3.19,-22.23 -0.69,-6.73 1.25,-13.29 1.16,-19.65 m -284.56,1.05 c -10.96,3.19 -18.96,13.3 -18.96,25.28 0,2.44 0.33,4.8 0.95,7.04 l 18.01,-32.32" /><path
         id="path230"
         style="fill:#b6c8e3;fill-opacity:1;fill-rule:nonzero;stroke:none"
         d="m 4227.41,2128.31 h -755.78 c 31.5,17.55 63.01,35.1 94.51,52.65 h 661.27 c 14.54,0 26.33,-11.78 26.33,-26.33 0,-14.54 -11.79,-26.32 -26.33,-26.32 m -858.52,0 h -174.38 v 17.36 h -21.89 v 10.85 l 43.87,24.44 h 246.91 c -31.51,-17.55 -63.01,-35.1 -94.51,-52.65 m -222.06,33.16 h -101.51 v 12.73 h -133.06 c -0.2,2.28 -0.15,4.5 0.19,6.76 h 223.57 c 3.96,-7.13 7.7,-13.89 10.81,-19.49 m -282.72,12.73 h -50.54 c 4.66,4.2 10.84,6.76 17.61,6.76 h 29.16 l 3.77,-6.76" /><path
         id="path232"
         style="fill:#b6c8e3;fill-opacity:1;fill-rule:nonzero;stroke:none"
         d="m 4227.41,2011.13 h -966.13 c 31.51,17.55 63.01,35.1 94.52,52.66 h 871.61 c 14.54,0 26.33,-11.79 26.33,-26.33 0,-14.54 -11.79,-26.33 -26.33,-26.33 m -1032.9,20.04 v 32.62 h 58.54 c -19.52,-10.88 -39.03,-21.75 -58.54,-32.62" /><path
         id="path234"
         style="fill:#b6c8e3;fill-opacity:1;fill-rule:nonzero;stroke:none"
         d="m 4227.41,1893.96 h -1032.9 v 52.65 h 1032.9 c 14.54,0 26.33,-11.78 26.33,-26.33 0,-14.54 -11.79,-26.32 -26.33,-26.32" /><path
         id="path236"
         style="fill:#b6c8e3;fill-opacity:1;fill-rule:nonzero;stroke:none"
         d="m 3427.41,1776.79 h -232.9 v 52.65 h 232.9 c 14.54,0 26.33,-11.79 26.33,-26.32 0,-14.55 -11.79,-26.33 -26.33,-26.33" /><path
         id="path238"
         style="fill:#406fbf;fill-opacity:1;fill-rule:nonzero;stroke:none"
         d="m 4119.47,2939.79 -1.91,1.59 c -5.34,4.17 -8.5,2.76 -10.98,10.6 -1.83,5.77 0.25,12.14 -2.05,18.09 -3.9,10.09 -11.05,19.88 -16.32,29.34 -8.22,14.76 -16.43,29.51 -24.66,44.27 -11.37,20.43 -37.25,27.78 -57.68,16.41 l -226.48,-126.17 c -0.92,-7.6 -7.21,-12.79 -8.45,-20.42 -0.69,-4.27 0.36,-9.08 3.71,-11.8 -2.81,-0.2 -4.66,1.23 -6.95,2.51 -13.49,7.5 -17.11,13.5 -31.03,5.91 -5.97,-3.25 -11.87,-6.61 -17.8,-9.91 -20.04,-11.17 -40.08,-22.33 -60.13,-33.5 -62.66,-34.91 -125.33,-69.82 -187.99,-104.72 -73.46,-40.92 -146.93,-81.85 -220.39,-122.78 -61.08,-34.02 -122.16,-68.05 -183.24,-102.07 -24.98,-13.92 -55.36,-26.09 -77.6,-43.77 6.22,-3.27 7.23,-8.12 1.75,-12.94 -3.46,-3.05 -6.93,-6.1 -10.4,-9.15 -0.11,-2.45 3.67,-2.43 5.92,-1.46 4.13,1.78 8.27,3.56 12.4,5.34 -8.56,-10.93 -18.97,-20.42 -30.64,-27.94 -19.12,-12.31 -41.16,-19.14 -62.89,-25.82 3.54,4.45 7.08,8.89 10.62,13.34 0.86,1.09 1.77,2.51 1.17,3.76 -0.55,1.14 -2.02,1.41 -3.27,1.53 -5.24,0.55 -10.53,0.05 -14.5,3.92 -34.18,-20.46 -69.88,-39.01 -104.74,-58.44 -20.43,-11.38 -27.79,-37.25 -16.42,-57.68 l 228.34,-409.88 c 11.38,-20.43 37.26,-27.79 57.68,-16.42 l 61.47,34.25 c 0.14,7.12 5.61,15.01 1.44,21.58 -0.53,0.83 -1.19,1.67 -1.18,2.65 0.01,1.32 1.2,2.3 2.31,3.01 6.11,3.94 13.28,6.23 20.55,6.56 2.45,0.11 5.81,-1.03 5.35,-3.44 0.41,2.14 12.93,6.8 15.07,7.46 0.97,-5.43 -2.74,-11.23 3.57,-12.32 5.08,-0.88 15.87,9.59 20.36,12.09 20.04,11.16 40.08,22.32 60.13,33.49 63.24,35.23 126.49,70.47 189.73,105.69 69.46,38.7 138.92,77.39 208.37,116.08 46.09,25.67 92.17,51.34 138.25,77.02 5.08,2.83 10.89,6.23 15.75,8.65 2.11,7.65 5.98,19.48 12.79,24.22 9.93,6.92 25.76,-0.68 34.15,9.13 1.59,1.86 2.56,4.18 3.98,6.17 2.43,3.41 6.07,5.72 9.61,7.94 2.55,1.62 5.29,3.28 8.32,3.27 3.02,-0.01 6.24,-2.49 5.85,-5.49 20.63,4.8 39.21,18.63 57.42,28.97 6.54,3.71 64.5,30.92 64.25,35.21 -0.82,13.33 7.35,24.71 6.94,38.42 -0.07,2.59 -5.1,19.93 -2.81,21.29 -52.04,-30.97 -106.06,-59.17 -159,-88.66 -1.81,-1.01 -8.61,-3.37 -9.57,-5.33 l -0.74,-1.44 c -0.51,-1.08 -1.01,-2.17 -1.5,-3.27 l -0.37,-0.84 c -2.53,-6.31 -4.42,-13.84 -7.6,-19.8 -0.46,-0.88 -11.31,-14.87 -12.21,-11.57 -4.39,16.11 -10.47,18.61 -22.32,12 -5.85,-3.27 -11.71,-6.53 -17.56,-9.79 -18.65,-10.38 -37.29,-20.77 -55.94,-31.16 -62.77,-34.97 -125.55,-69.94 -188.33,-104.91 -73.96,-41.2 -147.92,-82.4 -221.89,-123.61 -61.64,-34.33 -123.27,-68.67 -184.91,-103.01 -25.81,-14.37 -51.62,-28.75 -77.43,-43.12 -15.58,27.96 -31.16,55.93 -46.74,83.89 -10,17.97 -20.01,35.93 -30.01,53.89 -3.64,6.52 -7.06,15.65 -13.14,20.13 -4.34,3.2 -11.61,2.4 -15.47,5.32 -9.29,7.02 -15.97,20.15 -24.8,28.29 -6,5.55 -15.12,22.34 -12.56,31.63 3,-1.19 5.96,-2.42 9.01,-3.4 -1.46,6.56 -1.44,12.14 0.99,18.66 -30.21,50.44 -57.66,103.33 -86.36,154.86 l -1.86,3.34 c 23.35,13.01 46.7,26.01 70.05,39.02 17.05,9.5 34.09,19 51.14,28.49 9.15,5.1 21.59,9.58 29.56,16.46 6.5,5.63 13.01,12.64 20.39,18.66 4.48,3.65 9.74,6.22 14.94,8.76 6.3,3.07 12.59,6.15 18.89,9.22 1.01,0.49 2.07,1 3.2,0.99 1.16,0 2.24,-0.54 3.37,-0.78 10.13,-2.11 34.79,16.4 43.77,21.4 19.38,10.8 38.77,21.6 58.15,32.4 58.53,32.6 117.07,65.21 175.6,97.81 72.94,40.64 145.88,81.27 218.82,121.9 73.01,40.68 146.01,81.35 219.02,122.02 58.74,32.72 117.48,65.44 176.22,98.16 30.13,16.79 60.27,33.57 90.4,50.36 1.39,0.77 2.77,1.54 4.15,2.31 0,0 96.53,-173.28 97.31,-174.69 5.58,-10 16.59,-23.62 27.55,-27.22 3.93,-1.29 8.43,-4.05 8,-8.16 -0.45,-4.39 -6.5,-7.53 -5.12,-11.7 1.58,-4.78 9.05,-2.67 10.93,-6.46 2.35,-4.75 -3.11,-9.77 -2.51,-15.21 0.59,-5.32 6.48,-12.61 9.06,-17.25 9.45,-16.95 18.9,-33.91 28.34,-50.87 15.76,-28.28 31.52,-56.57 47.38,-85.06 l -173.05,-96.39 c 0.85,-0.68 1.59,-1.5 2.11,-2.51 l 0.88,-2.27 c 3.65,-0.98 7.17,-2.88 10.47,-4.36 2.83,-1.27 4.45,-4.96 4.39,-7.87 -0.07,-3.15 -1.84,-6.09 -4.58,-7.62 l -10.63,-5.92 c -0.86,-4.69 -4.24,-8.53 -9.1,-9.53 -1.19,-0.25 -2.45,-0.26 -3.69,-0.31 -2.06,-1.47 -4.62,-2.12 -7.43,-1.45 -4.49,1.07 -7.72,6.62 -6.15,11.03 0.4,1.13 0.97,2.03 1.57,2.89 -1.53,2.88 -1.44,6.47 0.62,9.34 -1.08,0.13 -2.14,0.17 -3.24,0.4 -1.74,0.38 -3.43,0.97 -5.13,1.51 -10.86,-6.05 -13.88,-12.86 -20.19,-23.66 l -0.55,-1.83 c 0.26,-1.41 2.21,-1.49 3.5,-2.12 2.95,-1.42 2.28,-5.82 0.8,-8.74 -1.48,-2.93 -3.28,-6.56 -1.33,-9.19 0.69,-0.95 1.77,-1.54 2.54,-2.42 4.24,-4.82 -2.31,-19.04 8.14,-13.22 -0.8,2.87 -0.11,6.55 1.37,9.06 1.65,2.79 4.54,4.85 7.65,5.67 7.72,2.05 15.69,2.94 23.68,3.48 l 208.32,116.05 c 20.43,11.38 27.79,37.26 16.41,57.68 l -1.2,2.15 c -31.4,56.38 -62.8,112.74 -94.21,169.11 -18.14,32.58 -36.28,65.15 -54.43,97.72 -5.23,9.39 -10.16,19.04 -15.72,28.23 -2.26,3.73 -3.89,6.14 -6.86,8.79" /><path
         id="path240"
         style="fill:#406fbf;fill-opacity:1;fill-rule:nonzero;stroke:none"
         d="m 3223.4,2235.3 -42.87,-23.88 c -3.48,6.25 -6.9,12.57 -10.51,18.74 4.51,-7.69 -7.9,-5.27 -10.47,-3.55 -6.35,4.25 -8.05,16.3 -8.23,23.12 -0.38,13.65 -3.57,20.54 -10.38,32.76 -10.14,18.21 -20.29,36.43 -30.44,54.64 l 42.87,23.88 c 40.27,22.43 80.02,13.07 101.64,-25.74 21.63,-38.81 8.66,-77.54 -31.61,-99.97 m -66.77,152.01 c -6.94,8.36 -4.81,8.59 -6.16,17.63 l -0.14,0.63 -0.78,0.8 -1.25,1.45 c -4.69,-2.1 -9.38,-4.39 -14.07,-7 l -92.11,-51.31 37.06,-66.53 c -4.18,7.51 7.09,7.15 11.88,6.79 1.12,-0.09 1.89,-0.17 2.02,-0.15 2.04,0.27 4.01,1.22 6.06,0.96 1.98,-0.26 3.66,-1.63 4.89,-3.22 4.71,-6.06 3.98,-14.58 3.19,-22.23 -1.07,-10.42 4.16,-20.41 -1.56,-29.89 4.9,-8 49.26,-88.57 49.41,-88.49 l 92.11,51.31 c 5.33,2.97 17.92,8.23 21.03,13.58 2.24,3.85 -1.76,13.54 3.73,16.11 3.69,1.7 9.77,0.9 12.63,-1.23 36.76,36.28 42.79,90.61 17.94,135.21 -25.88,46.46 -84.68,74.14 -136.23,52.56 -3.6,-1.5 1.22,-17.59 -7.42,-19.42 1.59,3.26 4.01,6.04 6.96,8.2 l -9.19,-15.76" /><path
         id="path242"
         style="fill:#406fbf;fill-opacity:1;fill-rule:nonzero;stroke:none"
         d="m 3461.13,2557.66 c 2.02,-4.96 2.9,-9.95 1.81,-15.25 -0.57,-2.81 -5.02,-10.19 -4.4,-11.75 1.56,-4 3.12,-8.01 4.69,-12.01 l 1.04,-1.79 c 0.69,-0.63 1.69,-0.77 2.63,-0.84 15.86,-1.36 15.24,-3.04 16.23,-16.4 0.86,-11.46 10.8,-18.07 16.41,-28.14 21.45,-38.53 8.91,-80.05 -27.3,-100.22 -20.74,-11.56 -43.33,-12.77 -62.9,-4.5 l -1.25,-1.07 c -1.98,-1.1 -4.6,-1.42 -6.79,-0.78 -10.44,3.05 -18.97,11.51 -21.1,22.33 l -0.04,2.36 c -2.69,3.45 -5.23,7.14 -7.5,11.21 -21.46,38.52 -8.91,80.05 27.29,100.22 13.43,7.48 27.61,10.38 41.28,9.43 l -0.87,1.16 c -8.58,11.43 22.49,15.98 8.43,23.65 -5.87,3.21 -4.84,17.73 -6.35,23.67 -21.36,-0.34 -43.5,-6.1 -64.75,-17.94 -64.02,-35.66 -86.1,-106.41 -52.53,-166.66 14.33,-25.73 37.48,-45.89 65.57,-55.15 5.92,-1.96 14.5,-5.36 20.8,-4.8 8.18,0.73 4.21,-0.51 7.63,4.91 3.12,4.94 1.45,7.01 6.7,12.17 5.18,5.08 11.51,8.36 12.67,16.35 -0.28,-3.57 3.98,-6.17 3.97,-9.75 0,-1.07 -0.41,-2.12 -0.32,-3.19 0.11,-1.3 0.93,-2.44 1.71,-3.49 3.44,-4.6 9.07,-9.64 9.21,-15.26 14.13,1.74 28.91,8.19 41.41,15.16 63.73,35.5 86.26,106.12 52.53,166.66 -16.9,30.34 -49.97,57.62 -85.91,59.71" /><path
         id="path244"
         style="fill:#406fbf;fill-opacity:1;fill-rule:nonzero;stroke:none"
         d="m 3665.58,2696.82 68.57,-123.11 -169.37,66.95 -38.82,-21.62 c 26.2,-47.04 54.04,-93.55 78.66,-141.38 1.68,5.14 5.71,6.15 10.46,6.82 8.98,1.26 8.67,-3.25 13.64,-12.2 0.57,-1.02 1.27,-2.15 2.41,-2.37 1.76,-0.34 3.28,1.65 5.06,1.45 1.75,-0.21 2.54,-2.49 2.06,-4.19 -0.49,-1.71 -1.75,-3.06 -2.58,-4.63 -2.89,-5.49 1.94,-9.06 1.3,-14 -0.35,-2.67 -8.67,-13.22 -7.67,-15 l 9.61,-17.26 46.34,25.82 -12.39,22.25 -2.23,-0.35 c -13.54,-1.74 -7.58,15.91 -10.5,23.2 -4.09,10.21 -11.16,20.03 -16.51,29.64 -8.98,16.12 -17.96,32.24 -26.95,48.37 l 137.77,-54.24 c 0.25,4.06 -0.57,8.23 1.37,11.77 1.11,2.03 9.73,5.96 9.57,8.01 0.47,-6.37 3.55,-12.52 8.37,-16.73 5.37,-4.67 5.37,-4 4.31,-12.34 l 8.28,-3.27 38.53,21.46 -112.95,202.77 -46.34,-25.82" /><path
         id="path246"
         style="fill:#406fbf;fill-opacity:1;fill-rule:nonzero;stroke:none"
         d="m 3898.67,2610.33 -26.14,46.92 94.14,52.45 -20.33,36.49 -94.14,-52.44 -24.53,44.03 63.65,35.46 c 2.47,3.44 5.97,6.14 9.7,8.25 2.05,1.15 4.27,1.25 6.34,0.69 l 26.91,14.98 c 0,0 -19.03,34.09 -20.9,37.64 -9.2,-4.2 -0.02,-15.77 -9.27,-21.37 1.85,-2.01 4.74,-9.15 -0.34,-9.6 -2.71,-0.24 -4.63,3.38 -7.33,3.08 -1.5,-0.17 -2.81,-1.55 -4.27,-1.2 l -1.9,1.67 c -1.75,2.79 -2.49,6.27 -4.86,8.56 -6.29,6.05 -63.76,-32.18 -71.84,-36.69 -17.84,-9.93 -35.67,-19.86 -53.5,-29.8 l 112.95,-202.76 45.07,25.11 0.94,1.21 c 3.24,4.2 6.45,8.46 10.02,12.4 2.72,2.99 7.44,3.11 10.8,1.31 l 2.04,-1.67 88.12,49.1 -20.97,37.66 -110.36,-61.48" /><path
         id="path248"
         style="fill:#406fbf;fill-opacity:1;fill-rule:nonzero;stroke:none"
         d="m 4018.96,453.469 c 0,0 -65.77,143.48 9.37,284.929 75.14,141.454 96.92,174.774 49.02,203.75 -47.9,28.981 -69.87,-113.156 -69.87,-113.156 0,0 -40.38,97.789 -7.04,200.118 33.34,102.34 54.25,269.01 8.72,286.89 -45.53,17.88 -8.7,-207.93 -48.2,-284.9 0,0 -33.18,85.69 -38.64,167.89 -5.46,82.18 3.07,213.43 -32.88,247.11 -35.95,33.66 -58.99,10.37 -23.65,-171.02 35.33,-181.39 35.06,-328.838 35.06,-328.838 0,0 -78.03,237.938 -130.41,244.868 -52.37,6.95 -52.31,-70.1 -7.47,-136.94 44.83,-66.83 131.29,-186.568 145.47,-248.17 0,0 -85.66,179.051 -162.72,124.18 -77.05,-54.891 67.07,-163.039 131.31,-202.121 C 3941.26,688.98 3985.87,444 3985.87,444 l 33.09,9.469" /><path
         id="path250"
         style="fill:#3563b7;fill-opacity:1;fill-rule:nonzero;stroke:none"
         d="m 3985.87,444 c 0,0 -44.61,244.98 -108.84,284.059 -51.25,31.179 -153.36,106.332 -153.41,163.312 -0.01,14.438 6.53,27.711 22.1,38.809 10.24,7.289 20.63,10.449 30.95,10.449 67.36,0 131.77,-134.629 131.77,-134.629 v 0 0 c -14.18,61.602 -100.64,181.34 -145.47,248.17 -21.55,32.13 -32.76,66.62 -32.77,93 -0.01,26.18 11,44.38 33.87,44.38 2.03,0 4.16,-0.14 6.37,-0.44 52.38,-6.93 130.41,-244.868 130.41,-244.868 0,0 0,0.039 0,0.11 v 0.007 c 0,0.012 0,0.012 0,0.02 v 0.012 c 0,0.007 0,0.007 0,0.019 0,5.602 -0.42,150.83 -35.06,328.67 -12.39,63.56 -17.6,107.7 -17.61,136.79 0,33.75 7.01,47.22 17.98,47.22 6.56,0 14.54,-4.81 23.28,-12.99 35.95,-33.68 27.42,-164.93 32.88,-247.11 5.46,-82.2 38.64,-167.89 38.64,-167.89 38.01,74.06 5.34,285.9 43.38,285.9 1.49,0 3.1,-0.33 4.82,-1 18.72,-7.35 26.21,-39.86 26.22,-82.7 0.02,-61.36 -15.3,-143.93 -34.94,-204.19 -1.85,-5.68 -3.47,-11.35 -4.89,-16.99 v 0 c -6.03,-24.011 -8.29,-47.479 -8.3,-69.171 -0.01,-64.937 20.23,-113.957 20.23,-113.957 0,0 18.09,117.059 57.24,117.059 3.99,0 8.2,-1.219 12.63,-3.903 17.17,-10.386 25.39,-21.328 25.41,-37.609 0,-1.43 -0.06,-2.898 -0.19,-4.418 -0.07,-0.82 -0.15,-1.66 -0.26,-2.5 -3.62,-29.48 -29.42,-75.34 -73.98,-159.223 -27.29,-51.386 -35.99,-103.039 -36.01,-147.988 -0.02,-78.769 26.64,-136.941 26.64,-136.941 l -6.42,-1.84 -8.74,-2.5 -17.93,-5.129" /><path
         id="path252"
         style="fill:#406fbf;fill-opacity:1;fill-rule:nonzero;stroke:none"
         d="m 3967.05,394.621 c 0,0 64.03,144.449 -12.8,284.777 -76.83,140.313 -99.01,173.313 -51.46,202.993 47.55,29.691 71.22,-112.102 71.22,-112.102 0,0 39.21,98.371 4.64,200.199 -34.56,101.832 -57.46,268.172 -12.15,286.742 45.31,18.55 11.18,-207.79 51.61,-284.16 0,0 32.14,86.18 36.62,168.44 4.47,82.27 -5.63,213.38 29.92,247.58 35.55,34.2 58.86,11.25 25.7,-170.65 -33.15,-181.9 -31.13,-329.331 -31.13,-329.331 0,0 75.18,239.081 127.47,246.811 52.28,7.71 53.14,-69.34 9.12,-136.83 -44.03,-67.5 -129.04,-188.508 -142.48,-250.32 0,0 83.5,180.312 161.21,126.589 77.7,-53.73 -65.11,-164.019 -128.87,-204.05 -63.76,-40.039 -105.43,-285.661 -105.43,-285.661 l -33.19,8.973" /><path
         id="path254"
         style="fill:#17282f;fill-opacity:1;fill-rule:nonzero;stroke:none"
         d="m 4262.4,497.602 h -529.01 l 42.81,-378.571 h 443.38 l 42.82,378.571" /><path
         id="path256"
         style="fill:#406fbf;fill-opacity:1;fill-rule:nonzero;stroke:none"
         d="m 1556.34,2878.07 h -349.16 c -27.97,0 -50.65,-22.67 -50.65,-50.65 v -339.41 c 0,-27.97 22.68,-50.65 50.65,-50.65 h 111.74 l -75.22,-102.25 130.08,102.25 h 182.56 c 27.97,0 50.65,22.68 50.65,50.65 v 339.41 c 0,27.98 -22.68,50.65 -50.65,50.65" /><path
         id="path258"
         style="fill:#a4c3e9;fill-opacity:1;fill-rule:nonzero;stroke:none"
         d="m 1243.7,2335.11 75.22,102.25 h -111.74 c -27.97,0 -50.65,22.68 -50.65,50.65 v 339.41 c 0,27.98 22.68,50.65 50.65,50.65 h 349.16 c 27.97,0 50.65,-22.67 50.65,-50.65 v -339.41 c 0,-27.97 -22.68,-50.65 -50.65,-50.65 h -138.93 -41.63 -2 L 1243.7,2335.11 m 138.06,481.12 c -87.54,0 -158.51,-70.97 -158.51,-158.51 0,-87.54 70.97,-158.51 158.51,-158.51 87.54,0 158.51,70.97 158.51,158.51 0,87.54 -70.97,158.51 -158.51,158.51" /><path
         id="path260"
         style="fill:#406fbf;fill-opacity:1;fill-rule:nonzero;stroke:none"
         d="m 1540.27,2657.72 c 0,-87.54 -70.97,-158.51 -158.51,-158.51 -87.54,0 -158.51,70.97 -158.51,158.51 0,87.54 70.97,158.51 158.51,158.51 87.54,0 158.51,-70.97 158.51,-158.51" /><path
         id="path262"
         style="fill:#3563b7;fill-opacity:1;fill-rule:nonzero;stroke:none"
         d="m 1381.76,2521.83 c -75.05,0 -135.89,60.84 -135.89,135.89 0,75.05 60.84,135.89 135.89,135.89 75.05,0 135.9,-60.84 135.9,-135.89 0,-75.05 -60.85,-135.89 -135.9,-135.89" /><path
         id="path264"
         style="fill:#ffffff;fill-opacity:1;fill-rule:nonzero;stroke:none"
         d="m 1364.88,2592.77 c -3.63,0 -7.12,1.42 -9.71,3.97 l -57.67,56.5 c -5.47,5.36 -5.57,14.14 -0.2,19.62 5.36,5.48 14.15,5.56 19.62,0.2 l 47.3,-46.35 81.76,91.34 c 5.12,5.71 13.89,6.18 19.59,1.08 5.71,-5.11 6.19,-13.88 1.09,-19.59 l -91.45,-102.15 c -2.52,-2.82 -6.09,-4.49 -9.88,-4.61 l -0.45,-0.01" /><path
         id="path266"
         style="fill:#17282f;fill-opacity:1;fill-rule:nonzero;stroke:none"
         d="m 928.992,346.461 288.128,28.309 v 324.929 h 114.19 v -324.82 l 289.29,-28.418 c 28.72,-2.832 50.61,-26.981 50.61,-55.832 v -43.27 h -385.83 -21.17 -385.827 v 43.27 c 0,28.851 21.89,53 50.609,55.832" /><path
         id="path268"
         style="fill:#2b3c43;fill-opacity:1;fill-rule:nonzero;stroke:none"
         d="m 1671.21,247.359 h -182.63 l 8,111.282 95.13,-9.34 0.25,-77.809 67.2,-7.711 3.96,55.891 c 5.14,-8.5 8.09,-18.461 8.09,-29.043 v -43.27 m -245.6,0 h -140.23 -21.17 -385.827 v 43.27 c 0,28.851 21.89,53 50.609,55.832 l 288.128,28.309 v 244.019 c 6.3,-3.879 13.72,-6.117 21.67,-6.117 h 70.85 c 7.95,0 15.37,2.238 21.67,6.129 v -167.172 -2.5 -74.25 l 101.22,-9.938 -6.92,-117.582" /><path
         id="path270"
         style="fill:#17282f;fill-opacity:1;fill-rule:nonzero;stroke:none"
         d="m 1566.06,193.691 c 0,-41.23 33.43,-74.66 74.66,-74.66 41.23,0 74.66,33.43 74.66,74.66 0,41.231 -33.43,74.661 -74.66,74.661 -41.23,0 -74.66,-33.43 -74.66,-74.661" /><path
         id="path272"
         style="fill:#17282f;fill-opacity:1;fill-rule:nonzero;stroke:none"
         d="m 983.531,193.691 c 0,-41.23 -33.426,-74.66 -74.66,-74.66 -41.23,0 -74.656,33.43 -74.656,74.66 0,41.231 33.426,74.661 74.656,74.661 41.234,0 74.66,-33.43 74.66,-74.661" /><path
         id="path274"
         style="fill:#17282f;fill-opacity:1;fill-rule:nonzero;stroke:none"
         d="m 1238.79,612.672 h 70.85 c 22.83,0 41.33,18.488 41.33,41.32 V 973.32 H 1197.46 V 653.992 c 0,-22.832 18.5,-41.32 41.33,-41.32" /><path
         id="path276"
         style="fill:#405158;fill-opacity:1;fill-rule:nonzero;stroke:none"
         d="m 1309.64,612.672 h -70.85 c -22.83,0 -41.33,18.488 -41.33,41.32 v 277.949 h 153.51 v -31.82 -2.5 -243.629 c 0,-22.832 -18.5,-41.32 -41.33,-41.32" /><path
         id="path278"
         style="fill:#17282f;fill-opacity:1;fill-rule:nonzero;stroke:none"
         d="m 875.422,1599.39 c 0,0 85.558,-534.11 254.358,-626.07 H 958.156 c 0,0 -169.547,181.96 -221.199,626.07 h 138.465" /><path
         id="path280"
         style="fill:#2b3c43;fill-opacity:1;fill-rule:nonzero;stroke:none"
         d="m 914.137,1033.99 c -47.051,74.76 -120.414,221.61 -161.473,456.88 h 143.762 c 10.953,-50.68 26.179,-114.16 45.656,-179.43 -4.945,-29.68 -8.148,-60.51 -8.144,-90.56 0.003,-67.42 16.16,-130.9 65.05,-168.6 1.552,-1.2 3.132,-2.34 4.752,-3.44 h -54.045 c -13.91,0 -26.492,-5.68 -35.558,-14.85" /><path
         id="path282"
         style="fill:#406fbf;fill-opacity:1;fill-rule:nonzero;stroke:none"
         d="M 1618.91,1048.84 H 949.695 c -27.609,0 -49.996,-22.39 -49.996,-50 v -66.899 h 769.211 v 66.899 c 0,27.61 -22.39,50 -50,50" /><path
         id="path284"
         style="fill:#17282f;fill-opacity:1;fill-rule:nonzero;stroke:none"
         d="M 1680.86,990.391 H 887.75 c -11.109,0 -20.113,-9 -20.113,-20.121 v -18.219 c 0,-11.102 9.004,-20.11 20.113,-20.11 h 793.11 c 11.1,0 20.11,9.008 20.11,20.11 v 18.219 c 0,11.121 -9.01,20.121 -20.11,20.121" /><path
         id="path286"
         style="fill:#9ba6a6;fill-opacity:1;fill-rule:nonzero;stroke:none"
         d="m 1563.04,931.941 h -25.24 l 4.2,58.45 h 19.65 c 0.41,-17.993 0.88,-37.59 1.39,-58.45 m -97.18,0 H 1350.97 1197.46 887.75 c -11.109,0 -20.113,9.008 -20.113,20.11 v 18.219 c 0,11.121 9.004,20.121 20.113,20.121 h 581.55 l -3.44,-58.45" /><path
         id="path288"
         style="fill:#406fbf;fill-opacity:1;fill-rule:nonzero;stroke:none"
         d="m 716.695,1490.87 h 274.942 c 80.543,0 132.863,64.58 116.853,144.26 l -21.37,106.35 c -16,79.66 -94.276,144.25 -174.819,144.25 H 637.352 c -80.547,0 -132.86,-64.59 -116.856,-144.25 l 21.367,-106.35 c 16.012,-79.68 94.285,-144.26 174.832,-144.26" /><path
         id="path290"
         style="fill:#f47072;fill-opacity:1;fill-rule:nonzero;stroke:none"
         d="m 2175.37,596.672 -62.99,-24.652 -45.33,85.402 -41.19,77.687 69.85,41.852 42.18,-95.352 37.48,-84.937" /><path
         id="path292"
         style="fill:#c75b5b;fill-opacity:1;fill-rule:nonzero;stroke:none"
         d="m 2064.9,661.469 -9.22,17.402 9.08,4.688 0.14,-22.09 m 68.53,18.621 0.07,11.441 4.39,-9.922 -4.46,-1.519" /><path
         id="path294"
         style="fill:#17282f;fill-opacity:1;fill-rule:nonzero;stroke:none"
         d="m 2124.82,728.18 -85.73,-46 c 0,0 -323.88,569.5 -373.7,564.76 -49.82,-4.72 -522.31,-305.87 -666.402,-194.66 -144.07,111.11 -3.875,446.03 -3.875,446.03 0,0 298.067,85.19 330.397,19.68 6.28,-12.67 14.72,-38.06 21.35,-59.85 6.35,-20.53 11.16,-37.84 11.16,-37.84 l 0.18,0.13 c 9.09,3.67 303.49,124.39 434.92,59.69 133.52,-65.83 331.7,-751.94 331.7,-751.94" /><path
         id="path296"
         style="fill:#57666b;fill-opacity:1;fill-rule:nonzero;stroke:none"
         d="m 2017.11,720.449 c -41.98,72.723 -136.71,234.813 -218.19,360.071 3.1,28.83 4.87,53.12 4.87,71.14 v 0 c 0.01,8.94 -0.42,16.34 -1.34,21.97 -16.43,101.21 -136.93,114.93 -136.93,114.93 0,0 -41.15,-31.97 -107.41,-74.06 l 19.56,272.05 c 38.61,7.55 78.16,12.6 114.88,12.6 37.97,0 72.88,-5.4 100.57,-19.03 86.76,-42.78 200.81,-347.42 270.06,-555.569 l 1.18,-180.442 -47.25,-23.66 m -929.79,307.191 c -35.52,0 -65.9,7.32 -88.332,24.64 -48.89,37.7 -65.047,101.18 -65.05,168.6 -0.012,97.31 33.625,202.83 51.015,250.9 l 92.157,19.54 4.21,-22.71 16.12,2.99 -4.29,23.12 70.82,15.01 1.05,-4.69 70.68,15.93 -0.86,3.79 40.41,8.56 2.99,-16.15 16.12,2.99 -3.08,16.56 4.91,1.04 c 14.25,-3.88 24.61,-10.22 29.32,-19.77 6.28,-12.67 14.72,-38.06 21.35,-59.85 6.35,-20.53 11.16,-37.84 11.16,-37.84 l 0.18,0.13 c 3.99,1.61 63.04,25.81 139.13,46.95 l -17.63,-300.02 c -74.05,-42.02 -164.03,-86.05 -258.11,-115.98 v 0 0 0 0 c 0,0 0.09,0.01 0.34,0.04 -48.64,-14.6 -94.84,-23.77 -134.61,-23.78 m 259.54,430.5 c -70.77,-31.54 -161.58,-99.33 -161.58,-99.33 l 172.74,61.49 c 0,0 -4.81,17.31 -11.16,37.84" /><path
         id="path298"
         style="fill:#f47072;fill-opacity:1;fill-rule:nonzero;stroke:none"
         d="m 1659.16,263.781 -67.2,7.711 -0.31,94.836 -0.15,87.004 81.26,3.828 -7.16,-102.379 -6.44,-91" /><path
         id="path300"
         style="fill:#c3c5c2;fill-opacity:1;fill-rule:nonzero;stroke:none"
         d="m 1591.66,364.449 -0.22,0.031 -0.02,40.321 h 0.17 l 0.06,-38.473 0.01,-1.879" /><path
         id="path302"
         style="fill:#c75b5b;fill-opacity:1;fill-rule:nonzero;stroke:none"
         d="m 1665.37,352.711 -73.71,11.738 -0.01,1.879 -0.06,38.473 77.28,-2.492 -3.5,-49.598" /><path
         id="path304"
         style="fill:#406fbf;fill-opacity:1;fill-rule:nonzero;stroke:none"
         d="m 1997.18,710.469 125.45,62.82 13.03,-53.141 -94.96,-49.007 -43.52,39.328" /><path
         id="path306"
         style="fill:#17282f;fill-opacity:1;fill-rule:nonzero;stroke:none"
         d="m 1221.59,1051.38 c 0,0 20.66,2.34 337.52,61.04 0,0 7.15,-405.248 22.18,-707.291 l 97.6,-3.149 c 0,0 140,670.45 123.56,771.65 -16.43,101.21 -136.93,114.93 -136.93,114.93 0,0 -209.16,-162.5 -443.93,-237.18" /><path
         id="path308"
         style="fill:#475156;fill-opacity:1;fill-rule:nonzero;stroke:none"
         d="m 1678.89,401.98 -10.02,0.329 -77.28,2.492 -10.3,0.328 c -15.02,301.891 -22.17,706.901 -22.18,707.291 v 0 0 0 0 0 c -2.84,-0.52 -5.66,-1.05 -8.45,-1.56 l 7.45,103.64 c 66.26,42.09 107.41,74.06 107.41,74.06 0,0 120.5,-13.72 136.93,-114.93 0.92,-5.63 1.35,-13.03 1.34,-21.97 0,-18.02 -1.77,-42.31 -4.87,-71.14 -5.35,-49.65 -14.67,-112.739 -25.83,-180.399 -0.14,-0.84 -0.28,-1.672 -0.41,-2.5 -27.37,-165.422 -65.56,-357.301 -83.6,-445.992 -0.17,-0.848 -0.34,-1.668 -0.51,-2.5 -6.04,-29.688 -9.68,-47.149 -9.68,-47.149 m -457.3,649.4 c 94.08,29.93 184.06,73.96 258.11,115.98 l -4.14,-70.38 c -237.09,-43.69 -253.97,-45.6 -253.97,-45.6" /><path
         id="path310"
         style="fill:#406fbf;fill-opacity:1;fill-rule:nonzero;stroke:none"
         d="m 1563.36,432.129 133.12,3.113 -18.21,-54.863 -107.98,-0.969 -6.93,52.719" /><path
         id="path312"
         style="fill:#394247;fill-opacity:1;fill-rule:nonzero;stroke:none"
         d="m 1185.28,1358.81 c 0,0 90.81,67.79 161.58,99.33 6.35,-20.53 11.16,-37.84 11.16,-37.84 l -172.74,-61.49" /><path
         id="path314"
         style="fill:#17282f;fill-opacity:1;fill-rule:nonzero;stroke:none"
         d="m 975.082,1518.93 6.379,-47.89 323.769,68.64 -7.54,56.63 -322.608,-77.38" /><path
         id="path316"
         style="fill:#111d23;fill-opacity:1;fill-rule:nonzero;stroke:none"
         d="m 981.461,1471.04 -6.059,45.48 3.016,-7.52 91.012,23.73 7.68,-41.41 -92.157,-19.54 -3.492,-0.74 m 111.689,23.68 -7.82,42.16 68.49,17.86 10.15,-45.01 -70.82,-15.01 m 141.69,30.04 -10.87,48.27 41.88,10.93 9.4,-50.64 -40.41,-8.56 m 56.44,11.96 -9.52,51.38 16.45,4.29 7.02,-52.71 -13.95,-2.96" /><path
         id="path318"
         style="fill:#17282f;fill-opacity:1;fill-rule:nonzero;stroke:none"
         d="m 1097.44,1471.6 -16.12,-2.99 -15.22,82.09 16.11,2.99 15.23,-82.09" /><path
         id="path320"
         style="fill:#ffffff;fill-opacity:1;fill-rule:nonzero;stroke:none"
         d="m 1235.7,1520.97 -70.68,-15.93 -12.08,53.6 70.68,15.93 12.08,-53.6" /><path
         id="path322"
         style="fill:#17282f;fill-opacity:1;fill-rule:nonzero;stroke:none"
         d="m 1294.36,1520.16 -16.12,-2.99 -15.22,82.08 16.12,2.99 15.22,-82.08" /><path
         id="path324"
         style="fill:#57666b;fill-opacity:1;fill-rule:nonzero;stroke:none"
         d="m 1081.32,1468.61 -11.89,64.12 15.9,4.15 12.11,-65.28 -16.12,-2.99" /><path
         id="path326"
         style="fill:#57666b;fill-opacity:1;fill-rule:nonzero;stroke:none"
         d="m 1278.24,1517.17 -12.39,66.79 15.91,4.14 12.6,-67.94 -16.12,-2.99" /><path
         id="path328"
         style="fill:#17282f;fill-opacity:1;fill-rule:nonzero;stroke:none"
         d="m 2300.63,484.961 c -10.53,3.187 -21.56,4.437 -32.54,3.668 0,0 -40.67,16.98 -89.79,97.883 l -41.97,-5.524 c -14.49,-2.16 -26.1,-13.148 -29.04,-27.5 -0.43,-1.968 -0.57,-3.976 -0.39,-5.968 1.82,-10.079 4.28,-20.02 7.37,-29.79 8.09,-30.839 38.08,-95.281 38.08,-95.281 l 6.86,2.793 -21.52,60.797 c -7.22,20.672 17.94,3.199 31.25,-16.809 13.3,-20.019 32.17,-39.41 77.03,-22.449 52.23,20.039 72.91,30.797 54.66,38.18" /><path
         id="path330"
         style="fill:#f47072;fill-opacity:1;fill-rule:nonzero;stroke:none"
         d="m 2167.61,608.012 c 0,0 67.42,-102.371 100.48,-119.383 0,0 -37.1,-29.66 -86.57,18.203 -63.97,61.898 -74.62,40.688 -74.62,40.688 0,0 -0.96,24.05 1.69,36.261 5.11,23.52 59.02,24.231 59.02,24.231" /><path
         id="path332"
         style="fill:#17282f;fill-opacity:1;fill-rule:nonzero;stroke:none"
         d="m 1759.74,144.602 c -9.48,5.609 -19.9,9.418 -30.75,11.277 0,0 -35.48,26.133 -64.01,116.391 l -42.08,4.589 c -14.6,1.332 -28.48,-6.597 -34.74,-19.839 -0.88,-1.79 -1.49,-3.731 -1.8,-5.7 -0.62,-10.23 -0.59,-20.468 0.1,-30.679 0.55,-31.891 14.4,-101.61 14.4,-101.61 l 7.32,1.09 -6.49,64.168 c -2.11,21.793 18.2,-1.141 26.38,-23.738 8.18,-22.61 21.9,-45.922 69.5,-40.082 55.5,7.082 78.14,12.633 62.17,24.133" /><path
         id="path334"
         style="fill:#f47072;fill-opacity:1;fill-rule:nonzero;stroke:none"
         d="m 1659.69,295.68 c 0,0 41.22,-115.438 69.3,-139.801 0,0 -43.08,-20.02 -79.79,38.211 -47.46,75.308 -62.84,57.23 -62.84,57.23 0,0 4.78,23.59 10.25,34.821 10.53,21.629 63.08,9.539 63.08,9.539" /><path
         id="path336"
         style="fill:#f47072;fill-opacity:1;fill-rule:nonzero;stroke:none"
         d="m 904.594,2335.58 -84.317,-17.01 c 0,0 -12.41,-10.28 -24.187,-5.82 -25.176,9.53 -61.473,39.31 -66.09,49.6 -6.777,15.11 0.055,59.36 17.828,67.34 17.77,7.97 79.121,-65.99 79.121,-65.99 l 90.887,20.53 -13.242,-48.65" /><path
         id="path338"
         style="fill:#406fbf;fill-opacity:1;fill-rule:nonzero;stroke:none"
         d="m 1171.36,2054.46 c 0,0 -7.7,274.03 -39.41,285.79 -31.71,11.75 -269.845,-20.99 -269.845,-20.99 l -5.855,62.59 c 0,0 277.4,42.64 331.06,17.4 53.67,-25.25 71.38,-433.88 61.58,-512.58 l -77.53,167.79" /><path
         id="path340"
         style="fill:#a4c3e9;fill-opacity:1;fill-rule:nonzero;stroke:none"
         d="m 1250.6,1909.08 c -19.01,70.77 -45.06,137.3 -80.53,179.58 0,0 0,0 0,-0.01 -3.27,73.86 -13.4,242.43 -38.12,251.6 -1.85,0.68 -4.42,1.22 -7.6,1.62 -22.86,26.94 -63.61,50.81 -135.737,56.82 45.097,4.7 93.927,8.55 132.897,8.55 29.62,0 53.55,-2.23 65.8,-7.99 44.36,-20.87 64.16,-303.73 64.15,-445.63 0,-17.14 -0.29,-32.23 -0.86,-44.54 m -373.006,458.76 -3.164,16.68 c 7.957,1.14 18.215,2.57 30.164,4.16 -9.883,-5.25 -18.93,-12.23 -27,-20.84" /><path
         id="path342"
         style="fill:#406fbf;fill-opacity:1;fill-rule:nonzero;stroke:none"
         d="m 866.094,2313.17 -16.547,68.82 23.719,8.66 15.089,-79.54 -22.261,2.06" /><path
         id="path344"
         style="fill:#b8d2ef;fill-opacity:1;fill-rule:nonzero;stroke:none"
         d="m 859.113,2342.21 -9.566,39.78 23.719,8.66 4.328,-22.81 c -6.91,-7.38 -13.106,-15.95 -18.481,-25.63" /><path
         id="path346"
         style="fill:#406fbf;fill-opacity:1;fill-rule:nonzero;stroke:none"
         d="m 1170.07,2088.66 c 0,0 -21.22,-83.4 -123.83,-110.07 -102.615,-26.65 -216.029,42.9 -216.029,42.9 l 22.555,-199 125.652,-313.49 321.022,83.72 c 0,0 -19.29,364.74 -129.37,495.94" /><path
         id="path348"
         style="fill:#b8d2ef;fill-opacity:1;fill-rule:nonzero;stroke:none"
         d="m 978.418,1509 -125.652,313.49 c 0,0 41.89,33.01 41.91,104.86 0.004,14.5 -1.696,30.59 -5.793,48.31 l -4.414,19.95 c 20.933,-8.11 46.449,-16.02 73.894,-20.15 l -14.453,-22.34 v 0 l 96.92,-98.67 24.1,68.78 c 41.21,-68.71 88.99,-194.06 88.99,-194.06 -14.27,73.81 -69.53,200.21 -69.53,200.21 l 56.79,-43.27 -32.27,119.86 v 0 l -1.13,0.31 c 9.22,6.39 17.15,13.21 23.96,20.09 15.03,0.76 30.45,2.03 46.1,3.94 0,0 -6.09,17.27 -12.61,45.08 3.53,8.13 4.84,13.27 4.84,13.27 110.08,-131.2 129.37,-495.94 129.37,-495.94 l -17.68,-4.62 -15.91,-4.14 -41.88,-10.93 -70.15,-18.29 -68.49,-17.86 -15.9,-4.15 -91.012,-23.73 m 260.262,347.28 c -0.79,0 -1.6,-0.12 -2.39,-0.37 l -37.6,-11.86 c -4.16,-1.31 -6.48,-5.76 -5.16,-9.93 l 22.37,-70.94 c 1.07,-3.38 4.19,-5.54 7.56,-5.54 0.78,0 1.58,0.12 2.37,0.37 l 37.6,11.86 c 4.17,1.31 6.48,5.76 5.16,9.93 l -22.37,70.94 c -1.07,3.38 -4.18,5.54 -7.54,5.54" /><path
         id="path350"
         style="fill:#6993d4;fill-opacity:1;fill-rule:nonzero;stroke:none"
         d="m 1223.46,1757.64 c -3.37,0 -6.49,2.16 -7.56,5.54 l -22.37,70.94 c -1.32,4.17 1,8.62 5.16,9.93 l 37.6,11.86 c 0.79,0.25 1.6,0.37 2.39,0.37 3.36,0 6.47,-2.16 7.54,-5.54 l 22.37,-70.94 c 1.32,-4.17 -0.99,-8.62 -5.16,-9.93 l -37.6,-11.86 c -0.79,-0.25 -1.59,-0.37 -2.37,-0.37 m 19.02,94 -42.76,-13.48 18.44,-58.48 42.76,13.48 -18.44,58.48" /><path
         id="path352"
         style="fill:#527bc7;fill-opacity:1;fill-rule:nonzero;stroke:none"
         d="m 1218.16,1779.68 -18.44,58.48 42.76,13.48 18.44,-58.48 -42.76,-13.48" /><path
         id="path354"
         style="fill:#17282f;fill-opacity:1;fill-rule:nonzero;stroke:none"
         d="m 1216.54,1872.49 10.87,-34.45 -9.43,-2.98 -10.87,34.46 9.43,2.97" /><path
         id="path356"
         style="fill:#17282f;fill-opacity:1;fill-rule:nonzero;stroke:none"
         d="m 951.758,2400.14 c -79.067,-0.05 -131.262,-83.78 -112.797,-216.74 18.461,-132.95 92.684,-171.15 92.684,-171.15 l -4.774,32.04 c 0,0 117.169,-30.31 250.969,-13.98 0,0 -38.19,108.37 -25.81,219.12 0,0 25.07,150.85 -200.272,150.71" /><path
         id="path358"
         style="fill:#8fa5cb;fill-opacity:1;fill-rule:nonzero;stroke:none"
         d="m 1153.92,1729.17 c 0,0 -47.78,125.35 -88.99,194.06 l -24.1,-68.78 -96.92,98.67 106.21,-61.91 1.14,75.34 -0.01,0.01 10.4,0.31 5.34,5.95 v 0 l 48.46,-51.33 -6.54,84.48 v 0 l 32.27,-119.86 -56.79,43.27 c 0,0 55.26,-126.4 69.53,-200.21" /><path
         id="path360"
         style="fill:#f47072;fill-opacity:1;fill-rule:nonzero;stroke:none"
         d="m 1061.65,1966.87 -98.521,-2.98 c 43.641,55.95 -35.356,153.32 -35.356,153.32 l 97.407,-21.12 c 23.23,-96.33 63.36,-99.25 63.36,-99.25 l -26.89,-29.97" /><path
         id="path362"
         style="fill:#111d23;fill-opacity:1;fill-rule:nonzero;stroke:none"
         d="m 1052.43,2026.92 c -0.04,0 -0.07,0.01 -0.1,0.01 -6.79,10.49 -13.71,24.64 -19.97,43.71 6.29,-19.09 13.23,-33.28 20.07,-43.72 m -108.336,67.06 c -8.996,14.18 -16.321,23.2 -16.321,23.2 h 0.024 c 0.457,-0.57 7.617,-9.49 16.297,-23.2" /><path
         id="path364"
         style="fill:#c75b5b;fill-opacity:1;fill-rule:nonzero;stroke:none"
         d="m 1052.33,2026.93 c -45.22,4.09 -76.674,25.99 -97.705,49.13 -3.547,6.56 -7.156,12.6 -10.531,17.92 -8.68,13.71 -15.84,22.63 -16.297,23.2 l 97.363,-21.13 c 2.26,-9.31 4.68,-17.76 7.2,-25.41 6.26,-19.07 13.18,-33.22 19.97,-43.71" /><path
         id="path366"
         style="fill:#f47072;fill-opacity:1;fill-rule:nonzero;stroke:none"
         d="m 1025.08,2359.42 c 84.95,-7.08 108.5,-54.84 107.43,-142.9 -1.34,-110.04 -32.07,-185.75 -136.338,-153.53 -141.606,43.75 -112.168,308.19 28.908,296.43" /><path
         id="path368"
         style="fill:#f14453;fill-opacity:1;fill-rule:nonzero;stroke:none"
         d="m 1077.99,2225.85 c 0,0 9.93,-23.17 21.79,-37.29 0,0 -8.24,-10.95 -23.2,-7.75 l 1.41,45.04" /><path
         id="path370"
         style="fill:#17282f;fill-opacity:1;fill-rule:nonzero;stroke:none"
         d="m 1020.53,2239.83 18.37,5.97 c 0,0 -9.84,-14.57 -18.37,-5.97" /><path
         id="path372"
         style="fill:#17282f;fill-opacity:1;fill-rule:nonzero;stroke:none"
         d="m 1026.93,2241.91 c 0,0 -12.88,6.42 -20.29,-5.41 0,0 8.37,4.83 19.57,0.51 l 0.72,4.9" /><path
         id="path374"
         style="fill:#17282f;fill-opacity:1;fill-rule:nonzero;stroke:none"
         d="m 992.695,2282.46 c -0.902,0 -1.812,0.34 -2.515,1.01 -1.442,1.39 -1.485,3.68 -0.098,5.13 15.518,16.13 40.248,11.04 41.288,10.8 1.96,-0.42 3.2,-2.34 2.78,-4.3 -0.41,-1.95 -2.34,-3.19 -4.3,-2.78 -0.22,0.05 -21.86,4.44 -34.541,-8.75 -0.715,-0.74 -1.661,-1.11 -2.614,-1.11" /><path
         id="path376"
         style="fill:#17282f;fill-opacity:1;fill-rule:nonzero;stroke:none"
         d="m 1125.93,2280.87 -2.25,0.79 c -15.99,12.67 -29.5,9.29 -30.08,9.15 -1.91,-0.51 -3.91,0.62 -4.43,2.55 -0.52,1.92 0.6,3.9 2.51,4.43 0.72,0.19 17.47,4.64 36.5,-10.45 1.57,-1.25 1.83,-3.53 0.59,-5.09 -0.72,-0.91 -1.78,-1.38 -2.84,-1.38" /><path
         id="path378"
         style="fill:#17282f;fill-opacity:1;fill-rule:nonzero;stroke:none"
         d="m 920.309,2223.98 c 0,0 45.535,66.48 44.007,120.87 0,0 174.064,54.75 168.144,-116.82 0,0 29.09,150.35 -116.66,165.9 -145.519,15.53 -162.929,-198.14 -92.816,-268.07 0,0 -30.882,56.52 -2.675,98.12" /><path
         id="path380"
         style="fill:#f47072;fill-opacity:1;fill-rule:nonzero;stroke:none"
         d="m 932.691,2204.89 c 0.571,13.73 -11.613,38.05 -37.281,37.4 -26.562,-0.68 -43.613,-53.68 20.785,-72.13 9.239,-2.64 15.305,6.1 16.496,34.73" /><path
         id="path382"
         style="fill:#17282f;fill-opacity:1;fill-rule:nonzero;stroke:none"
         d="m 1077.25,2155.66 c -7.21,-8.83 -16.62,-26.44 -16.62,-26.44 -1.75,0.57 -3.5,1.14 -5.21,1.79 -23.54,8.27 -31.71,19.88 -33.65,30.25 -1.04,5.66 -0.13,11.01 1.15,15.18 1.43,4.83 3.55,7.95 3.55,7.95 9.86,-11.84 31.2,-21.24 42.81,-25.78 4.84,-1.95 7.97,-2.95 7.97,-2.95" /><path
         id="path384"
         style="fill:#ffffff;fill-opacity:1;fill-rule:nonzero;stroke:none"
         d="m 1069.28,2158.61 -5.11,-7.67 c -22.14,7.85 -36.67,16.34 -41.25,25.5 1.43,4.83 3.55,7.95 3.55,7.95 9.86,-11.84 31.2,-21.24 42.81,-25.78" /><path
         id="path386"
         style="fill:#f14453;fill-opacity:1;fill-rule:nonzero;stroke:none"
         d="m 1055.42,2131.01 c -23.54,8.27 -31.71,19.88 -33.65,30.25 7.91,-3.13 17.1,-7.78 24.3,-14.36 5.54,-5.02 8.13,-10.67 9.35,-15.89" /><path
         id="path388"
         style="fill:#17282f;fill-opacity:1;fill-rule:nonzero;stroke:none"
         d="m 1022.79,2353.16 c 0,0 -45.872,-136.93 -133.731,-127.81 -87.864,9.13 62.699,174.79 62.699,174.79 0,0 148.152,42.23 212.652,-39.95 64.51,-82.18 -31.95,-132.16 -31.95,-132.16 0,0 14.43,107.8 -109.67,125.13" /><path
         id="path390"
         style="fill:#17282f;fill-opacity:1;fill-rule:nonzero;stroke:none"
         d="m 952.77,2236.66 c -1.008,0 -1.954,0.61 -2.336,1.6 -0.493,1.29 0.152,2.74 1.441,3.23 69.975,26.75 68.415,120.65 68.385,121.6 -0.03,1.38 1.06,2.53 2.44,2.57 1.35,-0.23 2.53,-1.07 2.56,-2.44 0.03,-0.98 1.64,-98.4 -71.6,-126.4 l -0.89,-0.16" /><path
         id="path392"
         style="fill:#17282f;fill-opacity:1;fill-rule:nonzero;stroke:none"
         d="m 1106.69,2231.49 18.37,5.97 c 0,0 -9.84,-14.57 -18.37,-5.97" /><path
         id="path394"
         style="fill:#17282f;fill-opacity:1;fill-rule:nonzero;stroke:none"
         d="m 1113.1,2233.57 c 0,0 -12.89,6.41 -20.29,-5.41 0,0 8.37,4.83 19.56,0.51 l 0.73,4.9" /><path
         id="path396"
         style="fill:#406fbf;fill-opacity:1;fill-rule:nonzero;stroke:none"
         d="m 977.043,2004.34 74.217,-37.79 -1.14,-75.34 -106.21,61.91 33.133,51.22" /><path
         id="path398"
         style="fill:#406fbf;fill-opacity:1;fill-rule:nonzero;stroke:none"
         d="m 1062.64,2018.55 4.35,-45.73 48.46,-51.33 -6.54,84.48 -46.27,12.58" /><path
         id="path400"
         style="fill:#f47072;fill-opacity:1;fill-rule:nonzero;stroke:none"
         d="m 719.313,2535.96 -31.008,80.23 c 0,0 1.992,16 -8.102,23.53 -21.57,16.1 -66.195,30.69 -77.355,29.05 -16.387,-2.42 -50.02,-31.98 -47.184,-51.24 2.836,-19.27 98.184,-31.23 98.184,-31.23 l 31.562,-87.66 33.903,37.32" /><path
         id="path402"
         style="fill:#406fbf;fill-opacity:1;fill-rule:nonzero;stroke:none"
         d="m 852.766,1822.49 c 0,0 60.511,47.68 36.117,153.17 l -64.504,291.59 -110.809,301.14 -54.203,-27.42 c 0,0 91,-294.21 99.387,-314.1 4.32,-10.24 21.449,-162.72 44.723,-265.07 21.418,-94.19 49.289,-139.31 49.289,-139.31" /><g
         id="g404"><g
           clip-path="url(#clipPath410)"
           id="g406"><path
             id="path412"
             style="fill:#a4c3e9;fill-opacity:1;fill-rule:nonzero;stroke:none"
             d="m 662.277,1822.49 h 232.402 v 733.754 H 662.277 Z" /></g></g><path
         id="path414"
         style="fill:#406fbf;fill-opacity:1;fill-rule:nonzero;stroke:none"
         d="m 649.906,2549.6 63.262,31.72 13.812,-21.13 -74.027,-32.75 -3.047,22.16" /><path
         id="path416"
         style="fill:#b8d2ef;fill-opacity:1;fill-rule:nonzero;stroke:none"
         d="m 652.953,2527.44 -3.047,22.16 63.262,31.72 13.812,-21.13 -8.937,-3.95 -55.766,-24.67 -9.324,-4.13" /><path
         id="path418"
         style="fill:#a4c3e9;fill-opacity:1;fill-rule:nonzero;stroke:none"
         d="m 1050.12,1891.21 -106.21,61.91 33.133,51.22 74.217,-37.79 -1.14,-75.34" /><path
         id="path420"
         style="fill:#a4c3e9;fill-opacity:1;fill-rule:nonzero;stroke:none"
         d="m 1115.45,1921.49 -48.46,51.33 v 0 l -3.8,39.98 -0.55,5.75 46.27,-12.58 6.54,-84.48" /><path
         id="path422"
         style="fill:#ffffff;fill-opacity:1;fill-rule:nonzero;stroke:none"
         d="m 2872.97,1928.69 h 299.652 v 232.777 H 2872.97 Z" /><path
         id="path424"
         style="fill:#e0e1de;fill-opacity:1;fill-rule:nonzero;stroke:none"
         d="m 3095.82,2145.67 h 76.8008 v 15.7969 H 3095.82 Z" /><path
         id="path426"
         style="fill:#406fbf;fill-opacity:1;fill-rule:nonzero;stroke:none"
         d="m 2855.76,1723.12 h 338.75 v 422.55 h -109.12 l -229.63,-109.96 v -312.59" /><path
         id="path428"
         style="fill:#3563b7;fill-opacity:1;fill-rule:nonzero;stroke:none"
         d="m 3194.51,1723.12 h -109.12 v 422.55 h 109.12 v -17.36 -181.7 -52.65 -64.52 -52.65 -53.67 m -98.69,96.03 v -64.45 h 88.13 v 64.45 h -88.13" /><path
         id="path430"
         style="fill:#b2caec;fill-opacity:1;fill-rule:nonzero;stroke:none"
         d="m 3095.82,1754.7 h 88.1289 v 64.4492 H 3095.82 Z" /><path
         id="path432"
         style="fill:#ffffff;fill-opacity:1;fill-rule:nonzero;stroke:none"
         d="m 2745.67,1928.69 h 299.648 v 245.508 H 2745.67 Z" /><path
         id="path434"
         style="fill:#e0e1de;fill-opacity:1;fill-rule:nonzero;stroke:none"
         d="m 2968.52,2145.67 h 76.8008 v 28.5273 H 2968.52 Z" /><path
         id="path436"
         style="fill:#406fbf;fill-opacity:1;fill-rule:nonzero;stroke:none"
         d="m 2728.46,1723.12 h 338.74 v 422.55 h -109.11 l -229.63,-109.96 v -312.59" /><path
         id="path438"
         style="fill:#3563b7;fill-opacity:1;fill-rule:nonzero;stroke:none"
         d="m 3067.2,1723.12 h -109.11 v 422.55 h 109.11 v -8.71 -413.84 m -98.68,96.03 v -64.45 h 88.13 v 64.45 h -88.13" /><path
         id="path440"
         style="fill:#b8d2ef;fill-opacity:1;fill-rule:nonzero;stroke:none"
         d="m 2922.07,1876.47 h -22.51 l -14.7,4.93 v 17.18 h 17.83 l -14.59,14.58 -12.63,12.63 h -112.04 v 26.65 h 158.64 v -75.97" /><path
         id="path442"
         style="fill:#b8d2ef;fill-opacity:1;fill-rule:nonzero;stroke:none"
         d="m 2922.07,1840.09 h -62.13 v 8.84 h 24.92 v 2.07 h 37.21 v -10.91" /><path
         id="path444"
         style="fill:#b2caec;fill-opacity:1;fill-rule:nonzero;stroke:none"
         d="m 2968.52,1754.7 h 88.1289 v 64.4492 H 2968.52 Z" /><path
         id="path446"
         style="fill:#17282f;fill-opacity:1;fill-rule:nonzero;stroke:none"
         d="m 2518.09,119.031 h 61.26 l 110.07,1532.479 h -81.27 L 2518.09,119.031" /><path
         id="path448"
         style="fill:#ffffff;fill-opacity:1;fill-rule:nonzero;stroke:none"
         d="m 2587.07,226.352 h -0.01 l 16,222.777 h 0.03 l -16.02,-222.777 m -62.67,0.109 c -0.06,0 0.04,0 -0.02,0 l 13.1,222.668 h 0.01 L 2524.4,226.461 m 78.87,225.168 h -0.03 l 32.03,445.992 h 0.06 l -32.06,-445.992 m -65.63,0 h -0.01 l 6.13,104.262 -6.12,-104.262 m 97.87,448.492 h -0.06 l 11.15,155.209 v -0.89 l -11.09,-154.319" /><path
         id="path450"
         style="fill:#eaeae7;fill-opacity:1;fill-rule:nonzero;stroke:none"
         d="m 2603.09,449.129 h -0.03 l 0.18,2.5 h 0.03 l -0.18,-2.5 m -65.6,0 h -0.01 l 0.15,2.5 h 0.01 l -0.15,-2.5" /><path
         id="path452"
         style="fill:#eaeae7;fill-opacity:1;fill-rule:nonzero;stroke:none"
         d="m 2635.33,897.621 h -0.06 l 0.18,2.5 h 0.06 l -0.18,-2.5" /><path
         id="path454"
         style="fill:#f4f4f2;fill-opacity:1;fill-rule:nonzero;stroke:none"
         d="m 2579.36,119.031 h -61.3 l 6.32,107.43 c 0.06,0 -0.04,0 0.02,0 l -6.31,-107.43 h 61.26 l 7.71,107.321 h 0.01 l -7.71,-107.321" /><path
         id="path456"
         style="fill:#d4e5f6;fill-opacity:1;fill-rule:nonzero;stroke:none"
         d="m 2646.6,1054.44 v 0.89 l 39.86,554.88 0.22,2.92 h 0.14 l -2.77,-37.75 -37.45,-520.94" /><path
         id="path458"
         style="fill:#2b3c43;fill-opacity:1;fill-rule:nonzero;stroke:none"
         d="m 2579.35,119.031 h -61.26 l 6.31,107.43 13.09,222.668 0.15,2.5 6.12,104.262 60,1019.489 0.21,3.65 h 80.08 l 2.41,31.18 -39.86,-554.88 -11.15,-155.209 -0.18,-2.5 -32.03,-445.992 -0.18,-2.5 -16,-222.777 -7.71,-107.321" /><path
         id="path460"
         style="fill:#bfc0be;fill-opacity:1;fill-rule:nonzero;stroke:none"
         d="m 2603.89,1579.03 h -0.13 l 2.09,33.38 -1.96,-33.38" /><path
         id="path462"
         style="fill:#111d23;fill-opacity:1;fill-rule:nonzero;stroke:none"
         d="m 2603.97,1579.03 h -0.08 l 1.96,33.38 0.05,0.72 h 0.11 l -2.04,-34.1" /><path
         id="path464"
         style="fill:#a3b3c7;fill-opacity:1;fill-rule:nonzero;stroke:none"
         d="m 2686.46,1610.21 0.21,2.92 h 0.01 l -0.22,-2.92" /><path
         id="path466"
         style="fill:#202e33;fill-opacity:1;fill-rule:nonzero;stroke:none"
         d="m 2684.05,1579.03 h -80.08 l 2.04,34.1 h 80.66 l -0.21,-2.92 -2.41,-31.18" /><path
         id="path468"
         style="fill:#17282f;fill-opacity:1;fill-rule:nonzero;stroke:none"
         d="m 2068.5,119.031 h 61.26 l 10.01,1532.479 h -81.27 l 10,-1532.479" /><path
         id="path470"
         style="fill:#ffffff;fill-opacity:1;fill-rule:nonzero;stroke:none"
         d="m 2067.77,223.641 -0.65,98.371 h 0.06 l 0.64,-98.371 h -0.05 m -0.61,100.871 h -0.05 l -0.82,124.617 h 0.06 l 0.81,-124.617 m -0.83,127.117 h -0.06 l -1.37,209.84 0.06,-0.11 1.37,-209.73 m -3.09,472.73 c -0.02,0.063 -0.04,0.129 -0.06,0.192 l -1.65,252.049 h 0.07 l 1.64,-252.241" /><path
         id="path472"
         style="fill:#eaeae7;fill-opacity:1;fill-rule:nonzero;stroke:none"
         d="m 2066.35,449.129 h -0.06 l -0.02,2.5 h 0.06 l 0.02,-2.5" /><path
         id="path474"
         style="fill:#eaeae7;fill-opacity:1;fill-rule:nonzero;stroke:none"
         d="m 2067.18,322.012 h -0.06 l -0.01,2.5 h 0.05 l 0.02,-2.5" /><path
         id="path476"
         style="fill:#fbfbfa;fill-opacity:1;fill-rule:nonzero;stroke:none"
         d="m 2061.3,1222.19 h -0.07 l -1.16,176.84 h 0.07 l 1.16,-176.84" /><path
         id="path478"
         style="fill:#eaeae7;fill-opacity:1;fill-rule:nonzero;stroke:none"
         d="m 2061.58,1178.62 h -0.06 l -0.29,43.57 h 0.07 l 0.28,-43.57" /><path
         id="path480"
         style="fill:#eaeae7;fill-opacity:1;fill-rule:nonzero;stroke:none"
         d="m 2061.6,1176.6 h -0.07 l -0.01,2.02 h 0.06 l 0.02,-2.02" /><path
         id="path482"
         style="fill:#f4f4f2;fill-opacity:1;fill-rule:nonzero;stroke:none"
         d="m 2129.76,119.031 h -61.31 l -0.68,104.61 h 0.05 l 0.68,-104.61 h 61.26" /><path
         id="path484"
         style="fill:#cd6b69;fill-opacity:1;fill-rule:nonzero;stroke:none"
         d="m 2064.96,661.359 -0.06,0.11 -0.14,22.09 0.05,0.031 0.15,-22.231" /><path
         id="path486"
         style="fill:#657579;fill-opacity:1;fill-rule:nonzero;stroke:none"
         d="m 2064.36,744.109 -1.18,180.442 c 0.02,-0.063 0.04,-0.129 0.06,-0.192 l 1.18,-180.218 -0.06,-0.032" /><path
         id="path488"
         style="fill:#4d79c6;fill-opacity:1;fill-rule:nonzero;stroke:none"
         d="m 2064.76,683.559 -0.4,60.55 0.06,0.032 0.39,-60.551 -0.05,-0.031" /><path
         id="path490"
         style="fill:#ffffff;fill-opacity:1;fill-rule:nonzero;stroke:none"
         d="m 2131.98,458.43 0.07,10.32 v 0 l -0.07,-10.32 m 1.52,233.101 v 0.008 l 0.18,27.59 v 0 l -0.18,-27.598 m 0.24,36.43 v 0.019 l 1.11,169.641 v 0 l -1.11,-169.66 m 1.13,172.16 h -0.01 l 1.81,276.479 h 0.01 l -1.81,-276.479" /><path
         id="path492"
         style="fill:#eaeae7;fill-opacity:1;fill-rule:nonzero;stroke:none"
         d="m 2134.85,897.621 v 0 l 0.01,2.5 h 0.01 l -0.02,-2.5" /><path
         id="path494"
         style="fill:#eaeae7;fill-opacity:1;fill-rule:nonzero;stroke:none"
         d="m 2136.69,1178.62 h -0.01 l 0.29,43.51 h 0.01 l -0.29,-43.51" /><path
         id="path496"
         style="fill:#eaeae7;fill-opacity:1;fill-rule:nonzero;stroke:none"
         d="m 2136.68,1176.6 h -0.01 l 0.01,2.02 h 0.01 l -0.01,-2.02" /><path
         id="path498"
         style="fill:#efefed;fill-opacity:1;fill-rule:nonzero;stroke:none"
         d="m 2136.98,1222.13 h -0.01 l 1.15,176.9 h 0.02 l -1.16,-176.9" /><path
         id="path500"
         style="fill:#f57b7d;fill-opacity:1;fill-rule:nonzero;stroke:none"
         d="m 2132.92,602.879 0.51,77.211 v 0 l -0.51,-77.199 v -0.012" /><path
         id="path502"
         style="fill:#cd6b69;fill-opacity:1;fill-rule:nonzero;stroke:none"
         d="m 2133.43,680.09 0.07,11.449 v -0.008 l -0.07,-11.441 v 0" /><path
         id="path504"
         style="fill:#4d79c6;fill-opacity:1;fill-rule:nonzero;stroke:none"
         d="m 2133.68,719.129 0.06,8.851 v -0.019 l -0.06,-8.832 v 0" /><path
         id="path506"
         style="fill:#2b3c43;fill-opacity:1;fill-rule:nonzero;stroke:none"
         d="m 2132.05,468.75 v 0 l 0.5,76.781 v 0 l -0.5,-76.781" /><path
         id="path508"
         style="fill:#f57b7d;fill-opacity:1;fill-rule:nonzero;stroke:none"
         d="m 2132.55,545.531 v 0 l 0.37,57.348 v 0.012 l -0.37,-57.36" /><path
         id="path510"
         style="fill:#2b3c43;fill-opacity:1;fill-rule:nonzero;stroke:none"
         d="m 2129.76,119.031 h -61.26 l -0.68,104.61 -0.64,98.371 -0.02,2.5 -0.81,124.617 -0.02,2.5 -1.37,209.73 -0.15,22.231 -0.39,60.551 -1.18,180.218 -1.64,252.241 -0.02,2.02 -0.28,43.57 -1.16,176.84 h 77.98 l -1.15,-176.9 -0.29,-43.51 -0.01,-2.02 -1.81,-276.479 -0.01,-2.5 -1.11,-169.641 -0.06,-8.851 -0.18,-27.59 -0.07,-11.449 -0.51,-77.211 -0.37,-57.348 -0.5,-76.781 -0.07,-10.32 -2.22,-339.399" /><path
         id="path512"
         style="fill:#bfc0be;fill-opacity:1;fill-rule:nonzero;stroke:none"
         d="m 2138.37,1433.41 h -0.01 l 1.16,179.72 h 0.01 l -1.16,-179.72" /><path
         id="path514"
         style="fill:#b6b8b6;fill-opacity:1;fill-rule:nonzero;stroke:none"
         d="m 2138.15,1399.03 h -0.01 l 0.01,2.76 0.21,31.62 h 0.01 l -0.22,-34.38" /><path
         id="path516"
         style="fill:#bfc0be;fill-opacity:1;fill-rule:nonzero;stroke:none"
         d="m 2060.07,1399.03 h -0.02 l -1.37,214.1 v 0 l 1.37,-211.34 0.02,-2.76" /><path
         id="path518"
         style="fill:#c0c1bf;fill-opacity:1;fill-rule:nonzero;stroke:none"
         d="m 2138.36,1433.41 h -0.01 l 1.17,179.72 v 0 l -1.16,-179.72" /><path
         id="path520"
         style="fill:#b8bab8;fill-opacity:1;fill-rule:nonzero;stroke:none"
         d="m 2138.14,1399.03 h -0.02 l 0.23,34.38 h 0.01 l -0.21,-31.62 -0.01,-2.76" /><path
         id="path522"
         style="fill:#c0c1bf;fill-opacity:1;fill-rule:nonzero;stroke:none"
         d="m 2060.14,1399.03 h -0.07 l -0.02,2.76 -1.37,211.34 h 0.07 l 1.39,-214.1" /><path
         id="path524"
         style="fill:#202e33;fill-opacity:1;fill-rule:nonzero;stroke:none"
         d="m 2138.12,1399.03 h -77.98 l -1.39,214.1 h 80.77 l -1.17,-179.72 -0.23,-34.38" /><path
         id="path526"
         style="fill:#17282f;fill-opacity:1;fill-rule:nonzero;stroke:none"
         d="m 1418.09,119.031 h 61.26 l 110.07,1532.479 h -81.27 L 1418.09,119.031" /><path
         id="path528"
         style="fill:#ffffff;fill-opacity:1;fill-rule:nonzero;stroke:none"
         d="m 1423.26,207.422 2.35,39.937 h 0.02 l -2.35,-39.937 h -0.02 m 62.61,2.34 2.7,37.597 h 0.01 l -2.7,-37.597 h -0.01 m 10.71,148.879 -0.02,0.007 6.5,90.481 h 0.03 l -6.51,-90.488 m -64.04,6.3 h -0.01 l 4.95,84.188 h 0.01 l -4.95,-84.188 m 70.73,86.688 h -0.03 l 32.03,445.992 h 0.06 l -32.06,-445.992 m -65.63,0 h -0.01 l 6.15,104.5 -6.14,-104.5 m 97.87,448.492 h -0.06 l 2.29,31.82 h 0.06 l -2.29,-31.82 m 10.69,148.719 h -0.06 l 4.45,62 c 0.02,0.01 0.05,0.01 0.07,0.02 l -4.46,-62.02" /><path
         id="path530"
         style="fill:#eaeae7;fill-opacity:1;fill-rule:nonzero;stroke:none"
         d="m 1503.09,449.129 h -0.03 l 0.18,2.5 h 0.03 l -0.18,-2.5 m -65.6,0 h -0.01 l 0.15,2.5 h 0.01 l -0.15,-2.5" /><path
         id="path532"
         style="fill:#eaeae7;fill-opacity:1;fill-rule:nonzero;stroke:none"
         d="m 1535.33,897.621 h -0.06 l 0.18,2.5 h 0.06 l -0.18,-2.5" /><path
         id="path534"
         style="fill:#fbfbfa;fill-opacity:1;fill-rule:nonzero;stroke:none"
         d="m 1577.57,1486.54 8.88,123.57 0.23,3.02 h 0.14 l -2.77,-37.75 -6.38,-88.83 c -0.03,0 -0.07,-0.01 -0.1,-0.01" /><path
         id="path536"
         style="fill:#f4f4f2;fill-opacity:1;fill-rule:nonzero;stroke:none"
         d="m 1479.36,119.031 h -61.3 l 5.2,88.391 h 0.02 l -5.19,-88.391 h 61.26 l 6.52,90.731 h 0.01 l -6.52,-90.731" /><path
         id="path538"
         style="fill:#3f4f55;fill-opacity:1;fill-rule:nonzero;stroke:none"
         d="m 1488.58,247.359 h -0.01 l 7.99,111.289 0.02,-0.007 -8,-111.282 m -62.95,0 h -0.02 l 6.92,117.582 h 0.01 l -6.91,-117.582" /><path
         id="path540"
         style="fill:#4d79c6;fill-opacity:1;fill-rule:nonzero;stroke:none"
         d="m 1542,990.391 h -0.06 l 4.2,58.449 h 0.06 l -4.2,-58.449" /><path
         id="path542"
         style="fill:#a4adae;fill-opacity:1;fill-rule:nonzero;stroke:none"
         d="m 1537.8,931.941 h -0.06 l 4.2,58.45 h 0.06 l -4.2,-58.45" /><path
         id="path544"
         style="fill:#657579;fill-opacity:1;fill-rule:nonzero;stroke:none"
         d="m 1558.03,1214.45 19.54,272.09 c 0.03,0 0.07,0.01 0.1,0.01 l -19.56,-272.05 c -0.03,-0.02 -0.05,-0.03 -0.08,-0.05" /><path
         id="path546"
         style="fill:#576266;fill-opacity:1;fill-rule:nonzero;stroke:none"
         d="m 1550.59,1110.84 7.44,103.61 c 0.03,0.02 0.05,0.03 0.08,0.05 l -7.45,-103.64 c -0.02,-0.01 -0.05,-0.01 -0.07,-0.02" /><path
         id="path548"
         style="fill:#2b3c43;fill-opacity:1;fill-rule:nonzero;stroke:none"
         d="m 1479.35,119.031 h -61.26 l 5.19,88.391 2.35,39.937 6.91,117.582 4.95,84.188 0.15,2.5 6.14,104.5 59.97,1019.251 0.22,3.65 h 80.08 l 2.4,31.08 -8.88,-123.57 -19.54,-272.09 -7.44,-103.61 -4.45,-62 -4.2,-58.449 -4.2,-58.45 -2.29,-31.82 -0.18,-2.5 -32.03,-445.992 -0.18,-2.5 -6.5,-90.481 -7.99,-111.289 -2.7,-37.597 -6.52,-90.731" /><path
         id="path550"
         style="fill:#bfc0be;fill-opacity:1;fill-rule:nonzero;stroke:none"
         d="m 1503.89,1579.03 h -0.14 l 2.09,33.25 -1.95,-33.25" /><path
         id="path552"
         style="fill:#111d23;fill-opacity:1;fill-rule:nonzero;stroke:none"
         d="m 1503.97,1579.03 h -0.08 l 1.95,33.25 0.06,0.85 h 0.11 l -2.04,-34.1" /><path
         id="path554"
         style="fill:#c0c1bf;fill-opacity:1;fill-rule:nonzero;stroke:none"
         d="m 1586.45,1610.11 0.22,3.02 h 0.01 l -0.23,-3.02" /><path
         id="path556"
         style="fill:#202e33;fill-opacity:1;fill-rule:nonzero;stroke:none"
         d="m 1584.05,1579.03 h -80.08 l 2.04,34.1 h 80.66 l -0.22,-3.02 -2.4,-31.08" /><path
         id="path558"
         style="fill:#17282f;fill-opacity:1;fill-rule:nonzero;stroke:none"
         d="m 3218.91,119.031 h 61.26 l -90.05,1532.479 h -81.28 L 3218.91,119.031" /><path
         id="path560"
         style="fill:#ffffff;fill-opacity:1;fill-rule:nonzero;stroke:none"
         d="m 3173.74,747.988 -10.76,149.633 h 0.01 l 10.75,-149.633 m -10.93,152.133 h -0.01 l -8.05,111.999 h 0.02 l 8.04,-111.999" /><path
         id="path562"
         style="fill:#eaeae7;fill-opacity:1;fill-rule:nonzero;stroke:none"
         d="m 3162.99,897.621 h -0.01 l -0.18,2.5 h 0.01 l 0.18,-2.5" /><path
         id="path564"
         style="fill:#d4e5f6;fill-opacity:1;fill-rule:nonzero;stroke:none"
         d="m 3154.77,1012.12 h -0.02 l -40.5,563.26 -2.76,37.75 h 0.11 l 43.17,-601.01" /><path
         id="path566"
         style="fill:#2b3c43;fill-opacity:1;fill-rule:nonzero;stroke:none"
         d="m 3280.16,119.031 h -61.21 l -45.21,628.957 -10.75,149.633 -0.18,2.5 -8.04,111.999 -43.17,601.01 h 0.02 l 2.63,-34.1 h 80.09 l 0.22,-3.65 85.6,-1456.349" /><path
         id="path568"
         style="fill:#a0afc8;fill-opacity:1;fill-rule:nonzero;stroke:none"
         d="m 3194.56,1579.03 h -0.18 l -2.01,34.1 h 0.04 l 2.15,-34.1" /><path
         id="path570"
         style="fill:#111d23;fill-opacity:1;fill-rule:nonzero;stroke:none"
         d="m 3194.38,1579.03 h -0.04 l -2.04,34.1 h 0.07 l 2.01,-34.1" /><path
         id="path572"
         style="fill:#202e33;fill-opacity:1;fill-rule:nonzero;stroke:none"
         d="m 3194.34,1579.03 h -80.09 l -2.63,34.1 h 80.68 l 2.04,-34.1" /><path
         id="path574"
         style="fill:#406fbf;fill-opacity:1;fill-rule:nonzero;stroke:none"
         d="m 1465.35,1613.13 h 1767.57 c 11.94,0 21.62,9.67 21.62,21.62 v 55.13 H 1443.73 v -55.13 c 0,-11.95 9.68,-21.62 21.62,-21.62" /><path
         id="path576"
         style="fill:#7da6dd;fill-opacity:1;fill-rule:nonzero;stroke:none"
         d="M 3232.92,1613.13 H 1465.35 c -8.69,0 -16.19,5.13 -19.63,12.52 -1.28,2.77 -1.99,5.85 -1.99,9.1 v 45.12 -28.36 h 1810.81 v -16.76 c 0,-11.95 -9.68,-21.62 -21.62,-21.62" /><path
         id="path578"
         style="fill:#6189ce;fill-opacity:1;fill-rule:nonzero;stroke:none"
         d="m 1443.73,1651.51 h 1810.81 v 28.3594 H 1443.73 Z" /><path
         id="path580"
         style="fill:#406fbf;fill-opacity:1;fill-rule:nonzero;stroke:none"
         d="m 1405.75,1679.87 h 1886.76 c 11.94,0 21.62,9.68 21.62,21.63 0,11.94 -9.68,21.62 -21.62,21.62 H 1405.75 c -11.94,0 -21.62,-9.68 -21.62,-21.62 0,-11.95 9.68,-21.63 21.62,-21.63" /><path
         id="path582"
         style="fill:#7da6dd;fill-opacity:1;fill-rule:nonzero;stroke:none"
         d="M 3292.51,1679.87 H 1405.75 c -11.94,0 -21.62,9.68 -21.62,21.63 0,11.94 9.68,21.62 21.62,21.62 h 1080.04 182.84 623.88 c 11.94,0 21.62,-9.68 21.62,-21.62 0,-11.95 -9.68,-21.63 -21.62,-21.63" /><path
         id="path584"
         style="fill:#406fbf;fill-opacity:1;fill-rule:nonzero;stroke:none"
         d="m 2887.09,1723.27 v 33.81 h 22.69 l -22.69,13.18 h 17.02 l -22.69,14.85 h -21.48 v 17.02 h 24.92 l -24.92,9.92 v 36.88 h 24.92 v 24.11 h 24.92 l -24.92,8.36 v 17.18 h 17.83 l -14.59,14.58 -12.63,12.63 h -386.32 v -17.29 h -25.53 l 28.36,-12.77 v -14.33 h -52.12 v -26.61 h -23.05 l 23.05,-11.53 v -29.78 h 16.39 v -14.19 h 32.9 v -42.21 h -18.44 l 15.08,-15.09 v -18.87 l 401.3,0.15" /><path
         id="path586"
         style="fill:#b8d2ef;fill-opacity:1;fill-rule:nonzero;stroke:none"
         d="m 2485.79,1723.12 v 18.87 l -15.08,15.09 h 18.44 v 42.21 h -32.9 v 14.19 h -2.92 -13.47 v 3.12 l 8.42,38.19 h 151.37 l 23.05,-11.53 v -29.78 h 16.39 -182.84 v -6.39 l 182.84,6.39 v -14.19 h 32.89 -182.83 l 182.83,-12.71 v -29.5 l -182.83,6.76 v -6.76 h 164.4 l 15.08,-15.09 h -182.84 l 182.84,-6.97 v -11.83 l -22.03,-0.01 -105.94,-0.04 -39.87,-0.02 h -15 m 136.91,131.67 v 0 l -173.2,5.56 4.64,21.05 h 37.84 v 14.33 l -28.36,12.77 h 25.53 v 17.29 h 386.32 l 12.63,-12.63 14.59,-14.58 -14.59,14.58 -12.63,12.63 h -203.49 v -17.29 l -182.83,6.38 v -6.38 h 157.31 l 28.36,-12.77 v -14.33 l -182.84,6.64 v -6.64 h 130.72 v -26.61" /><path
         id="path588"
         style="fill:#b6c8e3;fill-opacity:1;fill-rule:nonzero;stroke:none"
         d="m 2668.63,1723.12 v 0 0.07 l 59.83,0.02 v -0.05 l -59.83,-0.04" /><path
         id="path590"
         style="fill:#3b69bb;fill-opacity:1;fill-rule:nonzero;stroke:none"
         d="m 2728.46,1723.16 v 0.05 l 158.63,0.06 v 29.57 -29.57 l -158.63,-0.11" /><path
         id="path592"
         style="fill:#a2bbe6;fill-opacity:1;fill-rule:nonzero;stroke:none"
         d="m 2668.63,1723.19 v 18.8 l -15.08,15.09 h 18.43 v 29.5 l 0.8,-0.06 -0.8,12.77 h -32.89 v 14.19 h -16.39 v 29.78 l -23.05,11.53 h 23.05 v 26.61 h 52.12 v 14.33 l -28.36,12.77 h 25.52 v 17.29 h 203.49 l 12.63,-12.63 14.59,-14.58 h -17.83 -185.46 l 185.46,-5.68 v -11.5 l 24.92,-8.36 h -24.92 v -18.25 H 2622.7 l 262.16,-5.86 h -24.92 v -8.84 -22.36 l -187.96,-4.25 187.96,-1.43 24.92,-9.92 h -24.92 -191.31 l 191.31,-6.39 v -10.63 h 21.48 l 22.69,-14.85 h -17.02 l 22.69,-13.18 h -22.69 -153.81 l 153.81,-4.24 v -29.57 l -158.63,-0.06 -59.83,-0.02 m 6.19,47.07 v -6.42 l 212.27,6.42 h -212.27 m -52.12,73 v -6.38 l 129.68,6.38 H 2622.7 m 52.12,38.14 19.62,-6.23 190.42,6.23 h -210.04" /><path
         id="path594"
         style="fill:#a2bbe6;fill-opacity:1;fill-rule:nonzero;stroke:none"
         d="m 2674.82,1881.4 h -182.84 v 6.64 l 182.84,-6.64" /><path
         id="path596"
         style="fill:#a2bbe6;fill-opacity:1;fill-rule:nonzero;stroke:none"
         d="m 2671.98,1786.58 -182.83,12.71 h 182.83 v -12.71" /><path
         id="path598"
         style="fill:#91a6ce;fill-opacity:1;fill-rule:nonzero;stroke:none"
         d="m 2672.78,1786.52 -0.8,0.06 v 12.71 l 0.8,-12.77" /><path
         id="path600"
         style="fill:#a2bbe6;fill-opacity:1;fill-rule:nonzero;stroke:none"
         d="m 2456.25,1807.09 v 6.39 h 182.84 l -182.84,-6.39" /><path
         id="path602"
         style="fill:#a2bbe6;fill-opacity:1;fill-rule:nonzero;stroke:none"
         d="m 2671.98,1757.08 h -182.83 v 6.76 l 182.83,-6.76" /><path
         id="path604"
         style="fill:#a2bbe6;fill-opacity:1;fill-rule:nonzero;stroke:none"
         d="m 2668.63,1735.02 -182.84,6.97 h 182.84 v -6.97" /><path
         id="path606"
         style="fill:#a2bbe6;fill-opacity:1;fill-rule:nonzero;stroke:none"
         d="m 2622.7,1854.79 h -174.42 l 1.22,5.56 173.2,-5.56" /><path
         id="path608"
         style="fill:#a2bbe6;fill-opacity:1;fill-rule:nonzero;stroke:none"
         d="m 2671.98,1908.5 h -182.83 v 6.38 l 182.83,-6.38" /><path
         id="path610"
         style="fill:#91a6ce;fill-opacity:1;fill-rule:nonzero;stroke:none"
         d="m 2884.86,1892.9 -185.46,5.68 h 185.46 v -5.68" /><path
         id="path612"
         style="fill:#91a6ce;fill-opacity:1;fill-rule:nonzero;stroke:none"
         d="m 2694.44,1875.17 -19.62,6.23 h 210.04 l -190.42,-6.23" /><path
         id="path614"
         style="fill:#91a6ce;fill-opacity:1;fill-rule:nonzero;stroke:none"
         d="m 2884.86,1848.93 v 0 l -262.16,5.86 h 262.16 v -5.86" /><path
         id="path616"
         style="fill:#91a6ce;fill-opacity:1;fill-rule:nonzero;stroke:none"
         d="m 2622.7,1836.88 v 6.38 h 129.68 l -129.68,-6.38" /><path
         id="path618"
         style="fill:#91a6ce;fill-opacity:1;fill-rule:nonzero;stroke:none"
         d="m 2859.94,1812.05 -187.96,1.43 187.96,4.25 v -5.68" /><path
         id="path620"
         style="fill:#91a6ce;fill-opacity:1;fill-rule:nonzero;stroke:none"
         d="m 2859.94,1795.74 -191.31,6.39 h 191.31 v -6.39" /><path
         id="path622"
         style="fill:#91a6ce;fill-opacity:1;fill-rule:nonzero;stroke:none"
         d="m 2674.82,1763.84 v 6.42 h 212.27 l -212.27,-6.42" /><path
         id="path624"
         style="fill:#91a6ce;fill-opacity:1;fill-rule:nonzero;stroke:none"
         d="m 2887.09,1752.84 -153.81,4.24 h 153.81 v -4.24" /><path
         id="path626"
         style="fill:#17282f;fill-opacity:1;fill-rule:nonzero;stroke:none"
         d="m 2395.07,1766.95 v -32.09 c 0,-8.23 -9.69,-11.6 -17.82,-11.6 h -641.24 c -8.23,0 -18.14,3.37 -18.14,11.6 v 32.09 h 677.2" /><path
         id="path628"
         style="fill:#6c7a7f;fill-opacity:1;fill-rule:nonzero;stroke:none"
         d="m 1954.32,1723.26 h -218.31 c -8.23,0 -18.14,3.37 -18.14,11.6 v 32.09 h 253.16 -34.71 v -32.09 c 0,-8.23 9.77,-11.6 18,-11.6" /><path
         id="path630"
         style="fill:#535f64;fill-opacity:1;fill-rule:nonzero;stroke:none"
         d="m 2377.25,1723.26 h -422.93 c -8.23,0 -18,3.37 -18,11.6 v 32.09 h 34.71 l -2.44,-11.01 c -2.57,-11.4 4.56,-21.75 15.67,-21.75 h 14.17 v 0 h 396.62 c -0.51,-7.74 -9.9,-10.93 -17.8,-10.93" /><path
         id="path632"
         style="fill:#17282f;fill-opacity:1;fill-rule:nonzero;stroke:none"
         d="m 2502.36,2100.11 -76.33,-346.25 c -2.49,-11.4 -13.59,-19.67 -24.79,-19.67 h -416.98 c -11.11,0 -18.24,10.35 -15.67,21.75 l 76.24,343.6 c 2.58,11.31 13.58,16.94 24.78,16.94 h 416.99 c 11.2,0 18.24,-5.07 15.76,-16.37" /><path
         id="path634"
         style="fill:#6c7a7f;fill-opacity:1;fill-rule:nonzero;stroke:none"
         d="m 2401.24,1734.19 h -402.81 c -11.2,0 -18.24,10.35 -15.76,21.75 l 76.34,343.6 c 2.48,11.31 13.58,16.94 24.78,16.94 h 402.81 c 9.67,0 16.24,-3.78 16.26,-12.08 0,-1.32 -0.16,-2.75 -0.5,-4.29 l -1.57,-7.13 -51.29,-232.63 -1.22,-5.56 -8.42,-38.19 -13.83,-62.74 c -1.55,-7.08 -6.42,-12.96 -12.57,-16.39 -3.75,-2.09 -7.98,-3.28 -12.22,-3.28 m -137.39,243.47 c -22.81,-0.9 -45.99,-24.59 -52.63,-53.64 -6.64,-29.64 7.16,-53.74 30.46,-53.74 23.31,0 55.09,24.1 55.09,53.74 v 0.1 l -2.14,-0.1 c -23.2,0 -37.43,24 -30.78,53.64" /><path
         id="path636"
         style="fill:#535f64;fill-opacity:1;fill-rule:nonzero;stroke:none"
         d="m 2241.68,1870.28 c -23.3,0 -37.1,24.1 -30.46,53.74 6.64,29.05 29.82,52.74 52.63,53.64 -6.65,-29.64 7.58,-53.64 30.78,-53.64 l 2.14,0.1 v -0.1 c 0,-29.64 -31.78,-53.74 -55.09,-53.74" /></g></g></svg>